<svg width="97" height="30" viewBox="0 0 97 30" fill="none" xmlns="http://www.w3.org/2000/svg">
<path d="M41.17 7.95281C41.3649 7.98158 41.5598 8.01036 41.7606 8.04C42.1597 7.71718 42.1597 7.71718 42.4806 7.32C43.2906 7.2 43.2906 7.2 44.1606 7.32C44.9421 7.93306 45.316 8.29078 45.5082 9.27742C45.5069 9.56178 45.5057 9.84614 45.5045 10.1391C45.5054 10.2969 45.5064 10.4547 45.5073 10.6173C45.5089 11.1362 45.502 11.6546 45.4947 12.1734C45.4937 12.5353 45.4931 12.8972 45.493 13.2591C45.4915 14.0163 45.4861 14.7733 45.4775 15.5304C45.4666 16.5002 45.4631 17.4699 45.4622 18.4397C45.4612 19.1865 45.4575 19.9333 45.4529 20.68C45.4508 21.0376 45.4492 21.3952 45.4481 21.7528C45.4459 22.2526 45.4405 22.7522 45.4342 23.2519C45.4303 23.6782 45.4303 23.6782 45.4264 24.1131C45.3623 24.8219 45.2786 25.2171 44.8806 25.8C44.0433 26.3582 43.7053 26.3805 42.7206 26.28C42.4756 26.0944 42.4756 26.0944 42.2256 25.905C41.7823 25.4969 41.7823 25.4969 41.2056 25.605C40.7379 25.7464 40.2732 25.8977 39.8106 26.055C37.8446 26.5306 35.9127 26.4575 34.0806 25.56C31.6647 24.079 30.6334 22.1784 29.7606 19.56C29.692 18.6412 29.694 17.7211 29.6856 16.8C29.6787 16.5506 29.6717 16.3013 29.6645 16.0444C29.6452 13.6624 30.2164 11.5419 31.7359 9.66844C34.4077 6.97313 37.7006 6.8227 41.17 7.95281Z" fill="#37193C"/>
<path d="M75.8406 8.04C75.9427 7.92368 76.0447 7.80735 76.1499 7.6875C76.5606 7.32 76.5606 7.32 77.3706 7.2C78.4755 7.35241 78.7516 7.65899 79.4406 8.52C79.5897 9.2758 79.5897 9.2758 79.5882 10.1353C79.5896 10.2927 79.5909 10.4502 79.5923 10.6124C79.5951 11.1301 79.5893 11.6473 79.5831 12.165C79.5827 12.5263 79.5827 12.8876 79.5831 13.2489C79.5827 14.0051 79.5782 14.7611 79.5706 15.5173C79.5611 16.4849 79.5601 17.4523 79.5619 18.42C79.5626 19.1658 79.5597 19.9115 79.5556 20.6573C79.5539 21.014 79.5532 21.3707 79.5534 21.7274C79.5529 22.2266 79.5478 22.7255 79.5413 23.2247C79.5393 23.5083 79.5373 23.792 79.5352 24.0842C79.431 24.916 79.219 25.3722 78.7206 26.04C78.0358 26.3824 77.5603 26.3545 76.8006 26.28C76.6273 26.1018 76.4541 25.9236 76.2756 25.74C76.0528 25.6014 75.8301 25.4628 75.6006 25.32C74.9344 25.4983 74.3251 25.765 73.6881 26.0288C71.8503 26.6634 69.9842 26.4373 68.2365 25.6378C66.0914 24.4116 64.7651 22.6355 64.0806 20.28C63.9904 19.2583 63.9914 18.2393 63.9916 17.2138C63.9906 16.7287 63.9818 16.244 63.9728 15.7589C63.9649 13.1135 64.4518 11.3745 66.2574 9.42938C68.9679 6.91643 72.4658 6.70597 75.8406 8.04Z" fill="#36183B"/>
<path d="M11.7004 7.995C12.4855 8.43909 13.2087 8.92631 13.9204 9.48C14.7319 9.12294 15.3905 8.63311 16.086 8.0925C17.896 6.97646 20.2804 7.0249 22.3007 7.47656C24.4766 8.26258 26.1183 9.802 27.1204 11.88C27.7009 13.2395 27.6818 14.5376 27.6894 15.9909C27.6916 16.2471 27.6938 16.5032 27.696 16.7671C27.6995 17.3071 27.7016 17.8471 27.7025 18.3871C27.7054 19.2131 27.7172 20.0386 27.7293 20.8645C27.7316 21.39 27.7333 21.9155 27.7344 22.4409C27.7391 22.6875 27.7438 22.934 27.7486 23.188C27.7414 24.3341 27.7377 24.8953 27.0379 25.8365C26.4004 26.28 26.4004 26.28 25.6654 26.415C24.8122 26.2516 24.5339 25.9918 24.0004 25.32C23.7191 24.7575 23.7276 24.4181 23.7225 23.7911C23.7201 23.574 23.7176 23.3569 23.7151 23.1332C23.7133 22.8979 23.7116 22.6627 23.7097 22.4203C23.703 21.9242 23.6961 21.4281 23.6891 20.932C23.6792 20.1483 23.6704 19.3647 23.664 18.581C23.6574 17.8257 23.6464 17.0705 23.6348 16.3153C23.634 16.0815 23.6332 15.8477 23.6324 15.6069C23.6103 14.3908 23.5522 13.6073 22.8004 12.6C22.8004 12.4416 22.8004 12.2832 22.8004 12.12C21.3538 11.3717 20.0972 11.2335 18.4804 11.4C17.3879 11.9267 16.8178 12.462 16.3204 13.56C16.2178 14.4076 16.226 15.2496 16.2313 16.1025C16.2271 16.6072 16.2229 17.1119 16.2187 17.6166C16.2162 18.4097 16.2154 19.2029 16.2158 19.9961C16.2149 20.7633 16.2084 21.5303 16.2013 22.2975C16.2033 22.5343 16.2052 22.7711 16.2073 23.015C16.1958 24.0677 16.184 24.6716 15.6228 25.5839C15.0141 26.1365 14.7707 26.2658 13.9504 26.355C13.2004 26.28 13.2004 26.28 12.6805 25.9517C11.9918 24.9633 12.1144 23.9942 12.1279 22.8178C12.1262 22.5728 12.1245 22.3278 12.1227 22.0753C12.1157 21.0279 12.1197 19.9807 12.1226 18.9333C12.1232 18.1681 12.1181 17.403 12.1129 16.6378C12.1156 16.4028 12.1183 16.1677 12.1211 15.9255C12.1102 14.4431 11.9073 13.573 11.0404 12.36C10.1459 11.4879 9.38821 11.3181 8.17537 11.25C6.92574 11.2919 6.24894 11.5458 5.3535 12.4078C4.41659 13.701 4.49661 14.9962 4.50319 16.53C4.49949 17.0237 4.49557 17.5175 4.49147 18.0112C4.48751 18.7871 4.48538 19.5628 4.48707 20.3386C4.4877 21.0892 4.48096 21.8394 4.47319 22.59C4.47564 22.8215 4.47809 23.0531 4.48061 23.2916C4.46441 24.4028 4.44307 24.9173 3.75676 25.8272C3.12037 26.28 3.12037 26.28 2.38537 26.415C1.53221 26.2516 1.25388 25.9918 0.720374 25.32C0.440685 24.7606 0.444178 24.4192 0.434085 23.7957C0.43023 23.5792 0.426374 23.3627 0.422403 23.1397C0.411676 22.1407 0.401861 21.1417 0.39635 20.1427C0.392398 19.6185 0.385878 19.0943 0.376663 18.5702C0.278427 12.9511 0.278427 12.9511 1.68037 10.68C1.81304 10.4641 1.81304 10.4641 1.94838 10.2438C4.16449 7.198 8.41777 6.36783 11.7004 7.995Z" fill="#37193C"/>
<path d="M55.0206 7.215C55.2833 7.20711 55.5459 7.19922 55.8166 7.1911C57.803 7.17801 59.2572 7.5541 60.6983 8.96959C61.8348 10.2194 62.0221 11.2584 62.0022 12.9328C61.9206 13.56 61.9206 13.56 61.4256 14.22C60.5035 14.6124 59.9963 14.5632 59.0406 14.28C58.2462 13.5678 58.1236 12.64 57.8406 11.64C56.9945 11.2169 56.0277 11.3455 55.0956 11.34C54.8863 11.3351 54.677 11.3301 54.4614 11.325C54.1595 11.3231 54.1595 11.3231 53.8516 11.3213C53.6673 11.319 53.4831 11.3168 53.2933 11.3145C52.6641 11.4237 52.4547 11.6084 52.0806 12.12C52.0167 13.0152 52.0363 13.6672 52.3206 14.52C53.1214 14.843 53.9875 14.8014 54.8406 14.835C57.096 14.9899 59.1427 15.4451 60.8641 16.9781C62.0186 18.4253 62.0586 19.7762 62.02 21.5663C61.8439 23.1146 61.1511 24.0079 60.0306 25.035C58.3323 26.2238 57.0096 26.3947 54.9756 26.37C54.7475 26.3728 54.5193 26.3756 54.2842 26.3784C52.5387 26.3712 51.1188 26.1639 49.7406 25.005C48.5285 23.5571 47.9043 22.4468 47.935 20.5594C48.0006 20.04 48.0006 20.04 48.3756 19.425C49.2004 18.9386 49.6984 18.9312 50.6406 19.08C51.7435 19.8888 51.9966 20.6641 52.3206 21.96C52.8636 22.2315 53.1649 22.2309 53.7672 22.2319C54.0523 22.2323 54.0523 22.2323 54.3433 22.2328C54.542 22.2319 54.7408 22.231 54.9456 22.23C55.2424 22.2314 55.2424 22.2314 55.5451 22.2328C55.8308 22.2324 55.8308 22.2324 56.1222 22.2319C56.2963 22.2316 56.4705 22.2313 56.6499 22.2311C57.1722 22.2165 57.1722 22.2165 57.8406 21.96C58.1241 20.7404 58.1241 20.7404 57.8406 19.59C56.5998 18.892 55.3066 18.7928 53.9106 18.765C51.9478 18.6525 50.5676 18.1767 49.2306 16.71C48.0422 14.9624 47.7116 13.514 48.0006 11.4C48.5269 9.86562 49.522 8.67789 50.8806 7.8C52.2456 7.1658 53.539 7.22275 55.0206 7.215Z" fill="#37183C"/>
<path d="M85.1993 7.32C85.4369 7.3992 85.6745 7.4784 85.9193 7.56C86.2412 7.48781 86.5611 7.40684 86.8793 7.32C87.7285 7.25507 88.578 7.25348 89.4293 7.245C89.6567 7.23804 89.8841 7.23108 90.1184 7.2239C91.8988 7.20807 93.6658 7.4634 95.0268 8.70721C96.236 10.047 96.608 11.1354 96.5693 12.9412C96.4793 13.56 96.4793 13.56 95.9843 14.22C95.068 14.6099 94.5519 14.5446 93.5993 14.28C93.0519 13.9591 92.9184 13.6987 92.7481 13.0941C92.7073 12.9211 92.6664 12.7482 92.6243 12.57C92.5501 12.2631 92.4758 11.9562 92.3993 11.64C91.5557 11.2182 90.5988 11.3353 89.6693 11.325C89.4621 11.318 89.2548 11.3111 89.0412 11.3039C88.8407 11.3019 88.6403 11.2999 88.4337 11.2978C88.2508 11.2943 88.0678 11.2908 87.8793 11.2872C87.1408 11.4474 86.8746 11.7815 86.3993 12.36C86.2605 12.9706 86.2605 12.9706 86.2874 13.6434C86.2865 13.8997 86.2857 14.156 86.2848 14.4201C86.2882 14.6956 86.2917 14.9711 86.2953 15.255C86.293 15.8381 86.2906 16.4212 86.2882 17.0044C86.2903 17.924 86.2944 18.8436 86.2997 19.7632C86.3032 20.6505 86.2995 21.5377 86.2953 22.425C86.2992 22.7005 86.3032 22.976 86.3073 23.2599C86.2953 25.1621 86.2953 25.1621 85.5968 25.9734C84.8191 26.3475 84.3715 26.4251 83.5193 26.28C82.7995 25.7447 82.5818 25.4593 82.4374 24.5641C82.4367 24.2664 82.4359 23.9687 82.4351 23.662C82.4334 23.4972 82.4318 23.3324 82.43 23.1626C82.4258 22.6192 82.4286 22.076 82.4318 21.5325C82.4312 21.1541 82.4303 20.7758 82.4291 20.3974C82.4276 19.6049 82.4297 18.8125 82.4342 18.02C82.4397 17.0047 82.4365 15.9896 82.4308 14.9743C82.4273 14.1932 82.4284 13.4121 82.4309 12.6309C82.4315 12.2566 82.4307 11.8822 82.4285 11.5079C82.4261 10.9844 82.4298 10.4614 82.4351 9.93797C82.4359 9.64028 82.4367 9.34259 82.4374 9.03589C82.7048 7.37802 83.673 7.18124 85.1993 7.32Z" fill="#36173A"/>
<path d="M38.8807 11.16C39.9556 11.6783 40.6044 12.3431 41.2807 13.32C41.6529 14.4367 41.5947 15.5551 41.6107 16.725C41.6242 17.0909 41.6242 17.0909 41.6379 17.4642C41.6571 19.121 41.4012 20.2016 40.3207 21.48C39.263 22.4444 38.2237 22.5268 36.8407 22.5047C35.7652 22.3887 35.1634 21.9109 34.48 21.099C33.489 19.6879 33.4253 18.4763 33.4657 16.785C33.4631 16.5445 33.4604 16.3039 33.4577 16.0561C33.4767 14.1306 33.9065 13.1287 35.1607 11.655C36.234 10.8281 37.6043 10.9706 38.8807 11.16Z" fill="#FBFAFB"/>
<path d="M72.9603 11.16C74.1609 11.7494 75 12.5993 75.6003 13.8C75.6651 14.7386 75.6559 15.6794 75.6603 16.62C75.6653 16.8805 75.6702 17.141 75.6753 17.4094C75.683 18.9909 75.6346 20.1731 74.5203 21.3947C73.3135 22.3343 72.4361 22.54 70.9381 22.5225C69.9626 22.3922 69.2855 21.9758 68.6403 21.24C67.6607 19.8464 67.8053 18.3151 67.8153 16.68C67.8105 16.4009 67.8057 16.1219 67.8008 15.8344C67.8017 14.2881 67.8185 13.2829 68.8803 12.12C70.1071 10.983 71.3641 10.9245 72.9603 11.16Z" fill="#FDFCFD"/>
</svg>
