<svg width="16" height="16" viewBox="0 0 16 16" fill="none" xmlns="http://www.w3.org/2000/svg">
<g clip-path="url(#clip0_271_1035)">
<path d="M14.6673 7.38759V8.00093C14.6665 9.43854 14.201 10.8374 13.3402 11.9888C12.4794 13.1402 11.2695 13.9826 9.89089 14.3902C8.51227 14.7978 7.03882 14.7489 5.6903 14.2507C4.34177 13.7524 3.19042 12.8317 2.40796 11.6256C1.6255 10.4196 1.25385 8.99297 1.34844 7.55847C1.44303 6.12397 1.99879 4.75848 2.93284 3.66564C3.86689 2.57281 5.12917 1.81118 6.53144 1.49436C7.93371 1.17753 9.40083 1.32248 10.714 1.90759M6.00065 7.33419L8.00065 9.33419L14.6673 2.66752" stroke="#028F07" stroke-width="1.33333" stroke-linecap="round" stroke-linejoin="round"/>
</g>
<defs>
<clipPath id="clip0_271_1035">
<rect width="16" height="16" fill="white" transform="translate(0 0.000732422)"/>
</clipPath>
</defs>
</svg>
