<svg width="24" height="24" viewBox="0 0 24 24" fill="none" xmlns="http://www.w3.org/2000/svg">
<path d="M12 15.0007C10.3431 15.0007 9 16.3439 9 18.0007C9 19.6576 10.3431 21.0007 12 21.0007C13.6569 21.0007 15 19.6576 15 18.0007C15 16.3439 13.6569 15.0007 12 15.0007ZM12 15.0007V12.0007M6 9.00073C7.65685 9.00073 9 7.65759 9 6.00073C9 4.34388 7.65685 3.00073 6 3.00073C4.34315 3.00073 3 4.34388 3 6.00073C3 7.65759 4.34315 9.00073 6 9.00073ZM6 9.00073V11.0007C6 11.6007 6.4 12.0007 7 12.0007H17C17.6 12.0007 18 11.6007 18 11.0007V9.00073M18 9.00073C19.6569 9.00073 21 7.65759 21 6.00073C21 4.34388 19.6569 3.00073 18 3.00073C16.3431 3.00073 15 4.34388 15 6.00073C15 7.65759 16.3431 9.00073 18 9.00073Z" stroke="#8B4097" stroke-width="2" stroke-linecap="round" stroke-linejoin="round"/>
</svg>
