<svg width="24" height="25" viewBox="0 0 24 25" fill="none" xmlns="http://www.w3.org/2000/svg">
<path d="M0 24.5007L1.687 18.3377C0.646 16.5337 0.099 14.4887 0.1 12.3917C0.103 5.83573 5.438 0.500732 11.993 0.500732C15.174 0.501732 18.16 1.74073 20.406 3.98873C22.651 6.23673 23.887 9.22473 23.886 12.4027C23.883 18.9597 18.548 24.2947 11.993 24.2947C10.003 24.2937 8.042 23.7947 6.305 22.8467L0 24.5007ZM6.597 20.6937C8.273 21.6887 9.873 22.2847 11.989 22.2857C17.437 22.2857 21.875 17.8517 21.878 12.4007C21.88 6.93873 17.463 2.51073 11.997 2.50873C6.545 2.50873 2.11 6.94273 2.108 12.3927C2.107 14.6177 2.759 16.2837 3.854 18.0267L2.855 21.6747L6.597 20.6937ZM17.984 15.2297C17.91 15.1057 17.712 15.0317 17.414 14.8827C17.117 14.7337 15.656 14.0147 15.383 13.9157C15.111 13.8167 14.913 13.7667 14.714 14.0647C14.516 14.3617 13.946 15.0317 13.773 15.2297C13.6 15.4277 13.426 15.4527 13.129 15.3037C12.832 15.1547 11.874 14.8417 10.739 13.8287C9.856 13.0407 9.259 12.0677 9.086 11.7697C8.913 11.4727 9.068 11.3117 9.216 11.1637C9.35 11.0307 9.513 10.8167 9.662 10.6427C9.813 10.4707 9.862 10.3467 9.962 10.1477C10.061 9.94973 10.012 9.77573 9.937 9.62673C9.862 9.47873 9.268 8.01573 9.021 7.42073C8.779 6.84173 8.534 6.91973 8.352 6.91073L7.782 6.90073C7.584 6.90073 7.262 6.97473 6.99 7.27273C6.718 7.57073 5.95 8.28873 5.95 9.75173C5.95 11.2147 7.015 12.6277 7.163 12.8257C7.312 13.0237 9.258 16.0257 12.239 17.3127C12.948 17.6187 13.502 17.8017 13.933 17.9387C14.645 18.1647 15.293 18.1327 15.805 18.0567C16.376 17.9717 17.563 17.3377 17.811 16.6437C18.059 15.9487 18.059 15.3537 17.984 15.2297Z" fill="#FAFAFA"/>
</svg>
