<svg width="24" height="25" viewBox="0 0 24 25" fill="none" xmlns="http://www.w3.org/2000/svg">
<path d="M18.3952 7.52285C17.6005 7.52441 16.9543 6.88094 16.9528 6.08621C16.9512 5.29149 17.5947 4.6453 18.3898 4.64375C19.1848 4.64219 19.831 5.28605 19.8326 6.08077C19.8338 6.87549 19.1903 7.5213 18.3952 7.52285Z" fill="#FAFAFA"/>
<path fill-rule="evenodd" clip-rule="evenodd" d="M12.0115 18.6617C8.60909 18.6684 5.8451 15.9156 5.8385 12.5124C5.83188 9.10996 8.58536 6.34554 11.9878 6.33893C15.3909 6.33232 18.1553 9.08663 18.1619 12.4887C18.1685 15.8919 15.4143 18.6551 12.0115 18.6617ZM11.992 8.50108C9.78365 8.50498 7.99594 10.2993 7.99983 12.5081C8.0041 14.7173 9.79882 16.5047 12.0072 16.5004C14.2164 16.4961 16.0041 14.7022 15.9998 12.493C15.9955 10.2838 14.2008 8.49681 11.992 8.50108Z" fill="#FAFAFA"/>
<path fill-rule="evenodd" clip-rule="evenodd" d="M4.1192 1.14721C4.88126 0.848608 5.75333 0.644095 7.03015 0.583831C8.31011 0.522405 8.71872 0.508403 11.9769 0.502185C15.2358 0.495967 15.6444 0.508401 16.9244 0.565166C18.2016 0.620375 19.0741 0.821781 19.8377 1.11728C20.6277 1.42171 21.298 1.83151 21.966 2.49676C22.6339 3.16278 23.0453 3.83075 23.3536 4.61964C23.6518 5.38248 23.8563 6.25379 23.917 7.53141C23.9776 8.81096 23.9924 9.2192 23.9986 12.4778C24.0048 15.736 23.9916 16.145 23.9356 17.4257C23.88 18.7022 23.679 19.575 23.3835 20.3383C23.0783 21.1283 22.6693 21.7986 22.004 22.4666C21.3388 23.135 20.6701 23.5459 19.8812 23.8546C19.1184 24.1525 18.2471 24.357 16.9702 24.418C15.6903 24.4787 15.2817 24.4931 12.0224 24.4993C8.76459 24.5055 8.35598 24.4931 7.07605 24.4367C5.79882 24.3807 4.92597 24.1797 4.16275 23.8846C3.37271 23.579 2.70242 23.1703 2.03446 22.5047C1.36611 21.8391 0.954386 21.1707 0.646458 20.3818C0.347858 19.6194 0.144107 18.7477 0.0830727 17.4712C0.0220359 16.1909 0.00765506 15.7819 0.00143906 12.5237C-0.00480094 9.26509 0.00803667 8.85685 0.0640167 7.57689C0.1204 6.29928 0.320637 5.42679 0.61613 4.66279C0.921328 3.87312 1.33035 3.20321 1.99637 2.53486C2.6616 1.8669 3.33033 1.45475 4.1192 1.14721ZM4.94154 21.8686C5.36494 22.0315 6.00023 22.2259 7.17014 22.2769C8.43607 22.3317 8.81514 22.3437 12.0185 22.3375C15.223 22.3317 15.6021 22.3181 16.8676 22.2586C18.0363 22.203 18.6716 22.0062 19.0939 21.8414C19.6541 21.6225 20.0531 21.3608 20.4722 20.9413C20.8913 20.5202 21.1506 20.1202 21.3676 19.5599C21.5309 19.1361 21.7249 18.5004 21.7758 17.3305C21.8314 16.0653 21.8431 15.6858 21.8368 12.4817C21.831 9.2783 21.8174 8.89883 21.7572 7.63327C21.7019 6.46413 21.5056 5.82881 21.3404 5.40696C21.1215 4.84592 20.8606 4.44779 20.4399 4.02826C20.0192 3.60874 19.6191 3.35018 19.0581 3.13323C18.6355 2.96955 17.9994 2.77591 16.8303 2.72499C15.5643 2.66939 15.1849 2.6581 11.9808 2.66433C8.77743 2.67055 8.39836 2.68338 7.13281 2.74326C5.9633 2.79885 5.32877 2.9952 4.90575 3.16045C4.34587 3.37934 3.94696 3.63946 3.52746 4.06054C3.10871 4.4816 2.84938 4.88091 2.63244 5.44234C2.46993 5.86537 2.27434 6.50145 2.2242 7.6706C2.16898 8.93654 2.15733 9.31602 2.16355 12.5194C2.16939 15.7235 2.18298 16.103 2.24248 17.3678C2.29729 18.5377 2.49518 19.1722 2.65966 19.5957C2.87855 20.1551 3.13944 20.5541 3.55973 20.9736C3.98081 21.3915 4.38088 21.6517 4.94154 21.8686Z" fill="#FAFAFA"/>
</svg>
