<svg width="97" height="29" viewBox="0 0 97 29" fill="none" xmlns="http://www.w3.org/2000/svg">
<path d="M41.17 6.95646C41.3649 6.98523 41.5598 7.014 41.7606 7.04364C42.1597 6.72082 42.1597 6.72082 42.4806 6.32364C43.2906 6.20364 43.2906 6.20364 44.1606 6.32364C44.9421 6.9367 45.316 7.29442 45.5082 8.28106C45.5069 8.56542 45.5057 8.84978 45.5045 9.14276C45.5054 9.30058 45.5064 9.45839 45.5073 9.62098C45.5089 10.1399 45.502 10.6582 45.4947 11.1771C45.4937 11.539 45.4931 11.9008 45.493 12.2627C45.4915 13.0199 45.4861 13.7769 45.4775 14.5341C45.4666 15.5039 45.4631 16.4735 45.4622 17.4434C45.4612 18.1902 45.4575 18.9369 45.4529 19.6837C45.4508 20.0413 45.4491 20.3988 45.4481 20.7564C45.4459 21.2562 45.4405 21.7558 45.4342 22.2556C45.4303 22.6818 45.4303 22.6818 45.4264 23.1167C45.3623 23.8256 45.2786 24.2207 44.8806 24.8036C44.0433 25.3618 43.7053 25.3841 42.7206 25.2836C42.4756 25.098 42.4756 25.098 42.2256 24.9086C41.7823 24.5005 41.7823 24.5005 41.2056 24.6086C40.7379 24.75 40.2732 24.9014 39.8106 25.0586C37.8446 25.5343 35.9127 25.4612 34.0806 24.5636C31.6647 23.0826 30.6334 21.182 29.7606 18.5636C29.692 17.6449 29.694 16.7247 29.6856 15.8036C29.6787 15.5543 29.6717 15.3049 29.6645 15.048C29.6452 12.666 30.2164 10.5456 31.7359 8.67208C34.4077 5.97677 37.7006 5.82634 41.17 6.95646Z" fill="white"/>
<path d="M75.8406 7.04361C75.9427 6.92729 76.0447 6.81096 76.1499 6.69111C76.5606 6.32361 76.5606 6.32361 77.3706 6.20361C78.4755 6.35602 78.7516 6.6626 79.4406 7.52361C79.5897 8.27941 79.5897 8.27941 79.5882 9.13893C79.5895 9.29635 79.5909 9.45378 79.5923 9.61597C79.5951 10.1337 79.5893 10.6509 79.5831 11.1686C79.5827 11.5299 79.5827 11.8912 79.5831 12.2525C79.5827 13.0087 79.5782 13.7647 79.5706 14.5209C79.5611 15.4885 79.5601 16.456 79.5619 17.4236C79.5626 18.1694 79.5597 18.9151 79.5556 19.6609C79.5539 20.0176 79.5532 20.3743 79.5534 20.731C79.5529 21.2302 79.5478 21.7291 79.5413 22.2283C79.5393 22.5119 79.5373 22.7956 79.5352 23.0878C79.431 23.9196 79.219 24.3758 78.7206 25.0436C78.0358 25.386 77.5603 25.3581 76.8006 25.2836C76.6273 25.1054 76.4541 24.9272 76.2756 24.7436C76.0528 24.605 75.8301 24.4664 75.6006 24.3236C74.9344 24.5019 74.3251 24.7687 73.6881 25.0324C71.8503 25.6671 69.9842 25.4409 68.2365 24.6414C66.0914 23.4152 64.7651 21.6391 64.0806 19.2836C63.9904 18.2619 63.9914 17.2429 63.9916 16.2175C63.9906 15.7323 63.9818 15.2476 63.9728 14.7625C63.9649 12.1171 64.4518 10.3781 66.2574 8.43299C68.9679 5.92005 72.4658 5.70958 75.8406 7.04361Z" fill="white"/>
<path d="M11.7004 6.99864C12.4855 7.44273 13.2087 7.92995 13.9204 8.48364C14.7319 8.12659 15.3905 7.63675 16.086 7.09614C17.896 5.9801 20.2804 6.02854 22.3007 6.4802C24.4766 7.26623 26.1183 8.80564 27.1204 10.8836C27.7009 12.2431 27.6818 13.5413 27.6894 14.9946C27.6916 15.2507 27.6938 15.5069 27.696 15.7708C27.6995 16.3108 27.7016 16.8508 27.7025 17.3908C27.7054 18.2167 27.7172 19.0423 27.7293 19.8682C27.7316 20.3936 27.7333 20.9191 27.7344 21.4446C27.7391 21.6911 27.7438 21.9376 27.7486 22.1916C27.7414 23.3377 27.7377 23.899 27.0379 24.8401C26.4004 25.2836 26.4004 25.2836 25.6654 25.4186C24.8122 25.2553 24.5339 24.9955 24.0004 24.3236C23.7191 23.7611 23.7276 23.4217 23.7225 22.7948C23.7201 22.5776 23.7176 22.3605 23.7151 22.1368C23.7133 21.9016 23.7116 21.6663 23.7097 21.424C23.703 20.9279 23.6961 20.4318 23.6891 19.9357C23.6792 19.152 23.6704 18.3683 23.664 17.5846C23.6574 16.8293 23.6464 16.0742 23.6347 15.319C23.634 15.0852 23.6332 14.8514 23.6324 14.6105C23.6103 13.3944 23.5522 12.611 22.8004 11.6036C22.8004 11.4452 22.8004 11.2868 22.8004 11.1236C21.3538 10.3754 20.0972 10.2371 18.4804 10.4036C17.3879 10.9304 16.8178 11.4657 16.3204 12.5636C16.2178 13.4112 16.226 14.2533 16.2313 15.1061C16.2271 15.6108 16.2229 16.1155 16.2187 16.6202C16.2162 17.4134 16.2154 18.2065 16.2158 18.9997C16.2149 19.7669 16.2084 20.5339 16.2013 21.3011C16.2033 21.5379 16.2052 21.7747 16.2073 22.0186C16.1958 23.0713 16.184 23.6752 15.6228 24.5875C15.0141 25.1401 14.7707 25.2695 13.9504 25.3586C13.2004 25.2836 13.2004 25.2836 12.6805 24.9553C11.9918 23.9669 12.1144 22.9978 12.1279 21.8215C12.1262 21.5764 12.1245 21.3314 12.1227 21.0789C12.1157 20.0316 12.1197 18.9843 12.1226 17.937C12.1232 17.1717 12.1181 16.4067 12.1129 15.6415C12.1156 15.4064 12.1183 15.1713 12.1211 14.9292C12.1102 13.4468 11.9073 12.5766 11.0404 11.3636C10.1459 10.4915 9.38821 10.3218 8.17537 10.2536C6.92574 10.2956 6.24894 10.5494 5.3535 11.4115C4.41659 12.7046 4.49661 13.9999 4.50319 15.5336C4.49949 16.0274 4.49557 16.5211 4.49147 17.0149C4.48751 17.7907 4.48538 18.5664 4.48707 19.3422C4.4877 20.0928 4.48096 20.8431 4.47319 21.5936C4.47564 21.8252 4.47809 22.0567 4.48061 22.2952C4.46441 23.4065 4.44307 23.921 3.75676 24.8308C3.12037 25.2836 3.12037 25.2836 2.38537 25.4186C1.53221 25.2553 1.25388 24.9955 0.720374 24.3236C0.440685 23.7643 0.444178 23.4228 0.434085 22.7994C0.43023 22.5829 0.426374 22.3664 0.422403 22.1433C0.411676 21.1443 0.401861 20.1453 0.39635 19.1463C0.392398 18.6221 0.385878 18.098 0.376663 17.5739C0.278427 11.9548 0.278427 11.9548 1.68037 9.68364C1.81304 9.46774 1.81304 9.46774 1.94838 9.24747C4.16449 6.20164 8.41777 5.37147 11.7004 6.99864Z" fill="white"/>
<path d="M55.0206 6.21857C55.2833 6.21068 55.5459 6.20279 55.8166 6.19466C57.803 6.18158 59.2572 6.55767 60.6983 7.97316C61.8348 9.22299 62.0221 10.262 62.0022 11.9364C61.9206 12.5636 61.9206 12.5636 61.4256 13.2236C60.5035 13.6159 59.9963 13.5667 59.0406 13.2836C58.2462 12.5714 58.1236 11.6436 57.8406 10.6436C56.9945 10.2205 56.0277 10.3491 55.0956 10.3436C54.8863 10.3386 54.677 10.3337 54.4614 10.3286C54.1595 10.3267 54.1595 10.3267 53.8516 10.3248C53.6673 10.3226 53.4831 10.3203 53.2933 10.318C52.6641 10.4273 52.4547 10.612 52.0806 11.1236C52.0167 12.0187 52.0363 12.6707 52.3206 13.5236C53.1214 13.8465 53.9875 13.8049 54.8406 13.8386C57.096 13.9935 59.1427 14.4487 60.8641 15.9817C62.0186 17.4289 62.0586 18.7797 62.02 20.5698C61.8439 22.1182 61.1511 23.0115 60.0306 24.0386C58.3323 25.2274 57.0096 25.3983 54.9756 25.3736C54.7475 25.3764 54.5193 25.3791 54.2842 25.382C52.5387 25.3748 51.1188 25.1675 49.7406 24.0086C48.5285 22.5607 47.9043 21.4504 47.935 19.5629C48.0006 19.0436 48.0006 19.0436 48.3756 18.4286C49.2004 17.9421 49.6984 17.9348 50.6406 18.0836C51.7435 18.8923 51.9966 19.6677 52.3206 20.9636C52.8636 21.2351 53.1649 21.2345 53.7672 21.2354C54.0523 21.2359 54.0523 21.2359 54.3433 21.2364C54.542 21.2355 54.7408 21.2345 54.9456 21.2336C55.2424 21.235 55.2424 21.235 55.5451 21.2364C55.8308 21.2359 55.8308 21.2359 56.1222 21.2354C56.2963 21.2352 56.4705 21.2349 56.6499 21.2346C57.1722 21.2201 57.1722 21.2201 57.8406 20.9636C58.1241 19.744 58.1241 19.744 57.8406 18.5936C56.5998 17.8956 55.3066 17.7964 53.9106 17.7686C51.9478 17.6561 50.5676 17.1803 49.2306 15.7136C48.0422 13.966 47.7116 12.5176 48.0006 10.4036C48.5269 8.86919 49.522 7.68146 50.8806 6.80357C52.2456 6.16937 53.539 6.22631 55.0206 6.21857Z" fill="white"/>
<path d="M85.1993 6.32358C85.4369 6.40278 85.6745 6.48198 85.9193 6.56358C86.2412 6.49139 86.5611 6.41042 86.8793 6.32358C87.7285 6.25865 88.578 6.25706 89.4293 6.24858C89.6567 6.24162 89.8841 6.23465 90.1184 6.22748C91.8988 6.21165 93.6658 6.46698 95.0268 7.71078C96.236 9.05058 96.608 10.139 96.5693 11.9448C96.4793 12.5636 96.4793 12.5636 95.9843 13.2236C95.068 13.6135 94.5519 13.5482 93.5993 13.2836C93.0519 12.9627 92.9184 12.7023 92.7481 12.0976C92.7073 11.9247 92.6664 11.7518 92.6243 11.5736C92.5501 11.2667 92.4758 10.9598 92.3993 10.6436C91.5557 10.2218 90.5988 10.3389 89.6693 10.3286C89.4621 10.3216 89.2548 10.3147 89.0412 10.3075C88.8407 10.3055 88.6403 10.3035 88.4337 10.3014C88.2508 10.2979 88.0678 10.2944 87.8793 10.2908C87.1408 10.451 86.8746 10.7851 86.3993 11.3636C86.2605 11.9742 86.2605 11.9742 86.2874 12.647C86.2865 12.9033 86.2857 13.1596 86.2848 13.4237C86.2882 13.6992 86.2917 13.9747 86.2953 14.2586C86.293 14.8417 86.2906 15.4248 86.2882 16.008C86.2903 16.9276 86.2944 17.8472 86.2997 18.7668C86.3032 19.6541 86.2995 20.5412 86.2953 21.4286C86.2992 21.7041 86.3032 21.9796 86.3073 22.2635C86.2953 24.1657 86.2953 24.1657 85.5968 24.977C84.8191 25.351 84.3715 25.4286 83.5193 25.2836C82.7995 24.7483 82.5818 24.4629 82.4374 23.5677C82.4367 23.27 82.4359 22.9723 82.4351 22.6656C82.4334 22.5008 82.4318 22.336 82.43 22.1662C82.4258 21.6227 82.4286 21.0796 82.4318 20.5361C82.4312 20.1577 82.4303 19.7793 82.4291 19.401C82.4276 18.6085 82.4297 17.8161 82.4342 17.0236C82.4397 16.0083 82.4365 14.9932 82.4308 13.9779C82.4273 13.1967 82.4284 12.4156 82.4309 11.6345C82.4315 11.2601 82.4307 10.8858 82.4285 10.5115C82.4261 9.98802 82.4298 9.46497 82.4351 8.94155C82.4359 8.64386 82.4367 8.34617 82.4374 8.03947C82.7048 6.3816 83.673 6.18482 85.1993 6.32358Z" fill="white"/>
<path d="M38.8807 10.1636C39.9556 10.6818 40.6044 11.3466 41.2807 12.3236C41.6529 13.4402 41.5947 14.5587 41.6107 15.7286C41.6242 16.0945 41.6242 16.0945 41.6379 16.4678C41.6571 18.1246 41.4012 19.2052 40.3207 20.4836C39.263 21.448 38.2237 21.5304 36.8407 21.5082C35.7652 21.3923 35.1634 20.9145 34.48 20.1025C33.489 18.6914 33.4253 17.4799 33.4657 15.7886C33.4631 15.548 33.4604 15.3075 33.4577 15.0596C33.4767 13.1342 33.9065 12.1322 35.1607 10.6586C36.234 9.83168 37.6043 9.9742 38.8807 10.1636Z" fill="#341539"/>
<path d="M72.9603 10.1636C74.1609 10.7529 75 11.6029 75.6003 12.8036C75.6651 13.7422 75.6559 14.683 75.6603 15.6236C75.6653 15.8841 75.6702 16.1446 75.6753 16.413C75.683 17.9945 75.6346 19.1767 74.5203 20.3983C73.3135 21.3379 72.4361 21.5436 70.9381 21.5261C69.9626 21.3958 69.2855 20.9794 68.6403 20.2436C67.6607 18.85 67.8053 17.3186 67.8153 15.6836C67.8105 15.4045 67.8057 15.1255 67.8008 14.838C67.8017 13.2917 67.8185 12.2865 68.8803 11.1236C70.1071 9.98657 71.3641 9.92808 72.9603 10.1636Z" fill="#341539"/>
</svg>
