<?xml version="1.0" encoding="UTF-8"?>
<svg version="1.1" xmlns="http://www.w3.org/2000/svg" width="806" height="500">
<path d="M0 0 C265.98 0 531.96 0 806 0 C806 165 806 330 806 500 C540.02 500 274.04 500 0 500 C0 335 0 170 0 0 Z " fill="#FEFEFE" transform="translate(0,0)"/>
<path d="M0 0 C0.93070313 0.45246094 1.86140625 0.90492188 2.8203125 1.37109375 C9.55506593 4.83226926 15.22670928 9.13309622 21 14 C21.82886719 14.63421875 22.65773437 15.2684375 23.51171875 15.921875 C40.19208825 29.85273304 49.39009468 52.93076099 52 74 C52.27889317 78.89843046 52.30391799 83.7853658 52.30639648 88.69091797 C52.31403874 90.12495851 52.32246969 91.55899502 52.33161926 92.99302673 C52.35337668 96.85524859 52.36233844 100.71739138 52.36744571 104.57966757 C52.37111381 107.00545374 52.37736647 109.43121997 52.3844471 111.85699844 C52.40888338 120.35682311 52.42197937 128.85658734 52.42553711 137.35644531 C52.42916056 145.21806424 52.45898517 153.07928999 52.50094169 160.9407891 C52.53591602 167.7379348 52.55109024 174.534952 52.55178314 181.33218682 C52.55256726 185.37046627 52.56089688 189.4083448 52.58978081 193.44652939 C52.76520862 219.59330105 49.87334845 241.3938161 38 265 C38.59296875 265.25136719 39.1859375 265.50273437 39.796875 265.76171875 C43.94570337 268.09359569 46.12045388 271.7073592 48 276 C49.10823312 282.78172505 48.85399294 289.37412364 45.2578125 295.359375 C41.04412222 300.85549276 34.64833868 305.10672495 27.8046875 306.421875 C21.56225022 306.81338675 16.99022341 304.62303891 12 301 C11.113125 300.05125 10.22625 299.1025 9.3125 298.125 C7.18572529 295.70169308 7.18572529 295.70169308 4.25 295.9375 C0.83727068 297.05319997 -2.32391532 298.44614199 -5.578125 299.953125 C-9.60331587 301.69304622 -13.75923118 302.90366488 -18 304 C-18.61359375 304.17281494 -19.2271875 304.34562988 -19.859375 304.52368164 C-26.57564829 306.25100786 -33.09636744 306.26349596 -40 306.1875 C-41.14339844 306.18685547 -42.28679687 306.18621094 -43.46484375 306.18554688 C-51.85937033 306.14062967 -51.85937033 306.14062967 -53 305 C-54.79112962 304.82765763 -56.58295091 304.66250319 -58.375 304.5 C-72.26459776 302.45021355 -85.25987729 294.78381621 -96 286 C-97.546875 284.8553125 -97.546875 284.8553125 -99.125 283.6875 C-115.99342757 267.91918727 -127.41245466 245.14302996 -128.45961857 221.91414428 C-128.54368821 218.42078825 -128.53831337 214.93108152 -128.51757812 211.43701172 C-128.52301837 209.86279662 -128.53015154 208.28858663 -128.53881836 206.71438599 C-128.55682607 202.49538119 -128.55007997 198.27677402 -128.53730202 194.05776358 C-128.52705929 189.60988006 -128.53659823 185.16202693 -128.54284668 180.71414185 C-128.55008917 173.2519123 -128.54062374 165.789842 -128.52148438 158.32763672 C-128.49970618 149.73815984 -128.5067876 141.14906274 -128.52879 132.55959499 C-128.54702241 125.14078742 -128.54946471 117.72209323 -128.53903532 110.30327046 C-128.53284528 105.8914774 -128.53183969 101.47986207 -128.54518127 97.0680809 C-128.5568549 92.91942952 -128.54850756 88.77126151 -128.52560425 84.62266159 C-128.52037858 83.11315203 -128.52172346 81.60360077 -128.53065491 80.09410858 C-128.60147807 66.89332146 -126.53226701 54.49402684 -120.1875 42.75 C-119.84058105 42.08726074 -119.49366211 41.42452148 -119.13623047 40.74169922 C-118.11310077 38.81451698 -117.0637684 36.90499541 -116 35 C-115.14728516 33.46472656 -115.14728516 33.46472656 -114.27734375 31.8984375 C-103.25506839 13.39769163 -82.90568159 -0.54882758 -62.2421875 -6.2578125 C-40.97903139 -11.12528197 -19.67865277 -9.78228681 0 0 Z " fill="#341839" transform="translate(149,162)"/>
<path d="M0 0 C0.63341309 0.24911133 1.26682617 0.49822266 1.91943359 0.75488281 C15.04093708 5.9415935 26.04454886 12.59165932 36.09765625 22.6640625 C37.89298121 24.21432914 37.89298121 24.21432914 40.05078125 23.90625 C42.30651556 22.85749177 43.47138018 21.72805136 45.125 19.875 C49.29761784 15.52444536 53.9714264 12.29142999 59 9 C60.12148438 8.2265625 60.12148438 8.2265625 61.265625 7.4375 C71.30818153 0.87909574 83.93063686 -3.91476438 96 -4 C97.35937925 -4.03760719 98.71875381 -4.075384 100.078125 -4.11328125 C123.62317286 -4.59275696 145.92486102 0.03931124 164 16 C164.80695313 16.66515625 165.61390625 17.3303125 166.4453125 18.015625 C173.04345102 23.62505164 178.10844485 29.87472892 183 37 C183.55558594 37.78890625 184.11117188 38.5778125 184.68359375 39.390625 C193.02678653 52.13295579 197.31347707 68.2046511 197.28088379 83.33544922 C197.28682603 84.21898512 197.29276828 85.10252102 197.29889059 86.01283073 C197.31609375 88.94348922 197.3192663 91.87398271 197.32226562 94.8046875 C197.33153367 96.91799257 197.34158455 99.03129434 197.35235596 101.14459229 C197.37848489 106.86349626 197.39146902 112.58235341 197.40037727 118.30130768 C197.40625457 121.87777834 197.41446685 125.4542364 197.42338562 129.03070068 C197.45069646 140.23159534 197.47005209 151.43246098 197.4777894 162.63338661 C197.48675884 175.54464591 197.52190884 188.45548259 197.57979059 201.36661339 C197.62304333 211.36265106 197.64319877 221.35856985 197.64587164 231.35470009 C197.64796521 237.31864336 197.6597277 243.28218829 197.69551086 249.24603271 C197.72850876 254.85394841 197.73276648 260.46116691 197.71523285 266.0691452 C197.71369434 268.12259542 197.72234841 270.17608346 197.74214935 272.22943878 C197.92705987 292.60487985 197.92705987 292.60487985 191 300 C189.03040651 301.74207039 187.36903565 302.7639814 185 304 C184.40703125 304.350625 183.8140625 304.70125 183.203125 305.0625 C177.63441777 307.43216265 170.79682398 306.90047812 165.13671875 305.078125 C158.60507342 301.70823211 155.06694924 296.82463833 152.54915285 289.98258328 C150.53549707 282.71276708 151.21702738 274.7269849 151.29052734 267.25952148 C151.28890329 265.17709998 151.2845825 263.09467911 151.27778625 261.01226807 C151.26880319 256.54820965 151.27841201 252.08472592 151.30268478 247.62072563 C151.34068322 240.55538147 151.33489627 233.49047595 151.32315063 226.42506409 C151.30633901 212.70314391 151.33435841 198.98149062 151.36656952 185.25961304 C151.40510234 167.79005466 151.42113648 150.32054022 151.40136492 132.85094887 C151.39485008 125.83402095 151.40905409 118.81753585 151.43981528 111.80067623 C151.45521906 107.4298111 151.45422697 103.05905589 151.44907188 98.68817139 C151.45012948 96.66900617 151.45802572 94.64983055 151.4734478 92.63072395 C151.58302787 77.64352195 150.25910432 65.75806264 140 54 C129.98417728 44.66671354 120.1474201 40.63267788 106.5625 40.6875 C105.37043945 40.66333008 105.37043945 40.66333008 104.15429688 40.63867188 C92.14555741 40.62890073 82.62946363 46.08326961 73.88671875 53.984375 C66.29552076 62.09422626 62.51937508 72.04825823 62.64164734 83.0055542 C62.63802719 84.31392742 62.63802719 84.31392742 62.63433391 85.64873242 C62.6297541 88.55344502 62.64636551 91.45764118 62.6628418 94.36230469 C62.66364864 96.45236198 62.66305291 98.54242021 62.66116333 100.63247681 C62.65960462 105.12536499 62.66697018 109.61811865 62.68100548 114.1109848 C62.70217718 121.22241525 62.69736763 128.33368225 62.6879425 135.44512939 C62.66509153 155.66463281 62.67696255 175.88403836 62.71508789 196.10351562 C62.73592652 207.27682891 62.73519018 218.44993872 62.71155292 229.62324834 C62.69790719 236.68515002 62.71098496 243.74632926 62.74415052 250.8081584 C62.75854343 255.21193529 62.74781179 259.6153919 62.73016739 264.01914597 C62.72700334 266.05239554 62.73400074 268.08569187 62.75223351 270.11886215 C62.92834922 291.00333838 62.92834922 291.00333838 56 300 C49.93573791 305.12419815 44.06652158 306.47677655 36.21484375 306.41015625 C29.56190014 305.56136029 24.72022631 302.06427157 20.5 297 C17.55884899 291.11769798 16.7083013 286.04723995 16.74171448 279.51416016 C16.73803877 278.67361619 16.73436307 277.83307222 16.73057598 276.96705723 C16.72061643 274.15766345 16.72474282 271.34846841 16.72875977 268.5390625 C16.72437134 266.52150767 16.71906876 264.50395465 16.71292114 262.48640442 C16.70142586 258.14358411 16.69596204 253.80081257 16.69503975 249.45797729 C16.69309668 242.58139627 16.67502852 235.70491571 16.65428162 228.82836914 C16.60511754 211.74191039 16.57425586 194.65542427 16.55297852 177.56890869 C16.53642705 164.30023752 16.5135207 151.03165234 16.46995777 137.76303864 C16.44825939 130.93774892 16.44011639 124.11262286 16.44235051 117.28730106 C16.44067466 113.02443494 16.42656974 108.76167409 16.40913773 104.49884605 C16.40357435 102.53418435 16.40301933 100.56950049 16.40807533 98.60483742 C16.44794562 81.28477465 15.6206268 65.98747827 3.1875 52.6875 C-5.91497257 44.08783068 -16.5449184 40.46921878 -28.875 40.5625 C-29.80441406 40.54251953 -30.73382813 40.52253906 -31.69140625 40.50195312 C-44.32632043 40.51076408 -52.90760205 46.15591357 -61.78515625 54.72265625 C-70.12938299 63.74978646 -73.32248713 74.87184837 -73.2515564 86.91184998 C-73.25452654 87.77396483 -73.25749667 88.63607968 -73.26055682 89.52431923 C-73.26815593 92.39445556 -73.26171966 95.26438477 -73.25537109 98.13452148 C-73.25812288 100.19989154 -73.26180392 102.26526054 -73.26634216 104.33062744 C-73.27443875 108.76946379 -73.27662651 113.20824981 -73.27439499 117.64709282 C-73.27155693 124.66947911 -73.28593194 131.6917652 -73.30337524 138.71412659 C-73.35035631 158.67992659 -73.37434465 178.64571943 -73.38085938 198.61157227 C-73.38461153 209.64530657 -73.40265146 220.67892714 -73.43595374 231.71261269 C-73.45615226 238.68987426 -73.4585457 245.6668422 -73.44767356 252.64412105 C-73.44506334 256.98871003 -73.45908547 261.33312859 -73.47775459 265.67767334 C-73.48306906 267.68797751 -73.48159258 269.6983132 -73.47271919 271.70860481 C-73.46155716 274.45986439 -73.47507657 277.20997631 -73.49447632 279.96116638 C-73.48535166 280.75048394 -73.476227 281.5398015 -73.46682584 282.35303777 C-73.55257179 288.63218906 -75.1343911 294.74837307 -79.37644327 299.56186002 C-80.875 300.875 -80.875 300.875 -84 303 C-84.86625 303.598125 -85.7325 304.19625 -86.625 304.8125 C-92.98304365 307.04958943 -100.14057022 307.21901483 -106.375 304.4375 C-112.58251886 300.77765034 -116.11255597 295.89180603 -118 289 C-118.28197449 286.03265717 -118.27867064 283.08236262 -118.26742554 280.10328674 C-118.27195665 279.21852927 -118.27648776 278.33377179 -118.28115618 277.42220348 C-118.29379681 274.46313761 -118.29217998 271.50425587 -118.29052734 268.54516602 C-118.29651306 266.42086043 -118.3033187 264.29655702 -118.31088257 262.17225647 C-118.32855174 256.40318192 -118.33323852 250.63416671 -118.33451414 244.86506772 C-118.33593651 241.25641785 -118.34020789 237.64778302 -118.34550858 234.03913689 C-118.3640164 221.43664469 -118.37217881 208.83419479 -118.37060547 196.23168945 C-118.36940594 184.50749715 -118.39046939 172.78348949 -118.4220928 161.05934387 C-118.44830924 150.9783837 -118.45897042 140.89748361 -118.45769465 130.81648964 C-118.45718632 124.80268391 -118.4627973 118.78904206 -118.48405075 112.77527046 C-118.50352191 107.11086789 -118.50349706 101.44678391 -118.48901749 95.78236961 C-118.48693883 93.71329911 -118.49157343 91.64420821 -118.5037384 89.57517242 C-118.56898748 77.69981002 -117.85904037 67.30072054 -114 56 C-113.74504446 55.24348931 -113.49008892 54.48697863 -113.22740746 53.70754337 C-110.30743136 45.67283867 -106.23618612 38.71193795 -101 32 C-100.28972656 31.06414062 -99.57945312 30.12828125 -98.84765625 29.1640625 C-94.83252762 23.97997238 -94.83252762 23.97997238 -93 22 C-92.34 22 -91.68 22 -91 22 C-91 21.34 -91 20.68 -91 20 C-67.90638561 -1.43376086 -30.12585989 -12.56793464 0 0 Z " fill="#341939" transform="translate(354,162)"/>
<path d="M0 0 C19.46613926 16.62038951 29.25924899 40.17565895 31.26171875 65.28125 C31.49775514 71.72748518 31.0292801 76.79876862 27 82 C20.34133724 88.88642386 15.09222535 90.48328475 5.63256836 90.6706543 C-1.04209193 90.50391196 -4.54980925 88.28210124 -9.21484375 83.45703125 C-13.09562931 78.11564368 -13.56114865 72.69887408 -14.375 66.3125 C-16.34325026 52.36321489 -20.67016244 41.55615192 -31.90625 32.4140625 C-40.82491421 26.3906363 -48.62899295 23.81542839 -59.1875 23.75 C-60.40663086 23.7190625 -60.40663086 23.7190625 -61.65039062 23.6875 C-71.75501163 23.62319056 -78.99068655 27.08800203 -87 33 C-88.03125 33.721875 -89.0625 34.44375 -90.125 35.1875 C-97.93730843 41.97986816 -103.31859783 53.22469438 -104.34375 63.41796875 C-104.69517257 76.84523939 -101.25969342 88.53884609 -92.3671875 98.65234375 C-91.02076494 100.11853199 -91.02076494 100.11853199 -89 101 C-89 101.66 -89 102.32 -89 103 C-88.0409375 103.37125 -88.0409375 103.37125 -87.0625 103.75 C-85.36301797 104.44366614 -83.67025357 105.15838215 -82.015625 105.953125 C-73.89445634 109.81212004 -66.31426774 110.98951603 -57.375 111.4375 C-42.66162755 112.23108093 -30.18340304 115.34857751 -17 122 C-16.09765625 122.45117188 -15.1953125 122.90234375 -14.265625 123.3671875 C6.77013529 134.98497668 21.2710442 155.14863931 28.2578125 177.87109375 C29.7573024 184.19262749 30.45555684 190.53971714 31 197 C31.12761719 198.40185547 31.12761719 198.40185547 31.2578125 199.83203125 C32.30465537 222.54852163 20.95053997 244.4593327 6.6875 261.25 C-8.74318247 277.69165822 -31.61349419 288.40874098 -54.125 289.22265625 C-81.39553879 289.83542397 -104.04670647 281.75502284 -124 263 C-135.51293459 250.87092384 -142.91245377 236.1350509 -147 220 C-147.22429688 219.19820312 -147.44859375 218.39640625 -147.6796875 217.5703125 C-149.80870104 208.90843551 -151.14814134 196.5194681 -147.375 188.25 C-144.51485331 183.71040774 -140.4144628 180.9429752 -136 178 C-118.98890109 176.30779644 -118.98890109 176.30779644 -112.4375 181.6015625 C-111.963125 182.06304687 -111.48875 182.52453125 -111 183 C-110.236875 183.680625 -109.47375 184.36125 -108.6875 185.0625 C-105.33171256 190.90405591 -104.33417608 197.60561359 -103.359375 204.2109375 C-102.04270263 212.99428415 -100.51556307 219.75905566 -95 227 C-94.2575 228.051875 -93.515 229.10375 -92.75 230.1875 C-84.57515005 238.54814199 -74.89770984 243.98325004 -63.08276367 244.41943359 C-49.13320093 244.54043554 -37.25637816 240.58720626 -26.91796875 231.07421875 C-16.70545486 220.02972817 -14.11205325 208.21271875 -14.59375 193.63671875 C-15.26751587 183.25019676 -20.45002784 174.05217179 -28 167 C-39.19752722 158.99397262 -50.11296638 156.0422978 -63.75 155.5625 C-79.62040211 154.9845862 -92.20105137 150.7301422 -106 143 C-106.98742187 142.46632813 -107.97484375 141.93265625 -108.9921875 141.3828125 C-126.49680904 131.18446778 -139.74586582 112.98794171 -145.8125 93.8125 C-152.23807464 68.85799368 -149.91353259 45.23185031 -137.10888672 22.82226562 C-134.12641578 17.92108486 -130.61330799 13.44985206 -127 9 C-126.236875 7.948125 -125.47375 6.89625 -124.6875 5.8125 C-120.29994473 1.2208724 -115.15512031 -2.31777121 -110 -6 C-109.25621094 -6.56074219 -108.51242187 -7.12148437 -107.74609375 -7.69921875 C-75.56393573 -30.9656366 -29.34075224 -23.99237378 0 0 Z " fill="#341839" transform="translate(731,179)"/>
<path d="M0 0 C11.10340166 8.99044089 16.67114123 18.65401269 19.09375 32.6953125 C19.18475318 34.75587867 19.22426315 36.81901955 19.22746277 38.8815918 C19.23386024 40.74900528 19.23386024 40.74900528 19.24038696 42.65414429 C19.24003749 44.02593997 19.23957598 45.39773563 19.23901367 46.76953125 C19.24200719 48.22026658 19.24541016 49.67100112 19.24919128 51.12173462 C19.25801413 55.05553737 19.26036863 58.98931835 19.26100707 62.92313004 C19.26171834 65.38140336 19.26385409 67.83967116 19.26650429 70.29794312 C19.27575076 78.87539013 19.27983989 87.45282161 19.27905273 96.03027344 C19.27845154 104.02429439 19.28901322 112.01824796 19.3047964 120.01225185 C19.31786991 126.87861924 19.32323674 133.74496459 19.32259732 140.61134434 C19.32234236 144.71108433 19.32519304 148.81076436 19.33577538 152.91049194 C19.34545362 156.76497482 19.34553745 160.61934036 19.33825874 164.47382736 C19.33721268 165.88755845 19.33957706 167.30129684 19.3456192 168.71501541 C19.35333845 170.64633987 19.34749524 172.57770428 19.34098816 174.5090332 C19.34153293 175.58933304 19.34207769 176.66963287 19.34263897 177.78266907 C19.08608325 180.78503328 18.36012681 182.97700113 17.09375 185.6953125 C14.20486598 184.37989472 12.0906982 182.92395365 9.78125 180.7578125 C4.48146946 176.15566761 -0.63298622 174.13604793 -7.640625 174.41015625 C-14.29715484 175.24796087 -19.20577235 177.99483485 -23.90625 182.6953125 C-27.80258085 189.18919725 -27.68939334 195.31138956 -26.90625 202.6953125 C-25.92485505 205.64453013 -24.84486374 207.16434456 -22.90625 209.6953125 C-22.205 210.6440625 -21.50375 211.5928125 -20.78125 212.5703125 C-19.0821379 214.76353071 -19.0821379 214.76353071 -16.90625 215.6953125 C-16.90625 216.6853125 -16.90625 217.6753125 -16.90625 218.6953125 C-32.73381243 219.28577079 -44.30798553 218.28455141 -56.90625 207.6953125 C-65.97171631 199.13878465 -71.34057203 189.07055678 -72.09821701 176.51375389 C-72.17995531 172.70670391 -72.19991501 168.90214322 -72.19677734 165.09448242 C-72.20277176 163.63480794 -72.20957939 162.17513661 -72.21713257 160.71546936 C-72.23470609 156.77315638 -72.23948425 152.83093037 -72.24076414 148.88858199 C-72.24219113 146.41950513 -72.24647102 143.95044999 -72.25175858 141.48137856 C-72.27022969 132.85044591 -72.27843279 124.2195748 -72.27685547 115.58862305 C-72.27565461 107.57071598 -72.2967535 99.55307833 -72.3283428 91.5352394 C-72.35457735 84.62790842 -72.36521978 77.72066506 -72.36394465 70.8132847 C-72.36343716 66.69821793 -72.36900178 62.58339093 -72.39030075 58.46837425 C-72.40980504 54.59482704 -72.40972547 50.72174535 -72.39526749 46.84818077 C-72.39319334 45.43576876 -72.39779601 44.02332664 -72.4099884 42.61096573 C-72.53661992 26.91125817 -68.38411823 15.28385125 -57.53125 3.9453125 C-41.66174291 -11.21125501 -18.01581147 -12.98966117 0 0 Z " fill="#FDFDFD" transform="translate(136.90625,205.3046875)"/>
<path d="M0 0 C0.7022168 0.00507568 1.40443359 0.01015137 2.12792969 0.01538086 C7.44160376 0.14433556 11.26382762 1.25251029 16.0625 3.375 C19.02268366 2.96880939 19.89949299 2.53800701 22.0625 0.375 C27.59739848 -0.26015228 27.59739848 -0.26015228 30.0625 0.375 C33.37894123 3.0329891 34.90146258 4.51848682 35.69741821 8.75195312 C35.70139618 10.04037109 35.70537415 11.32878906 35.70947266 12.65625 C35.71823425 13.37071289 35.72699585 14.08517578 35.73602295 14.82128906 C35.7579549 17.17315151 35.74348866 19.52311987 35.7265625 21.875 C35.72993248 23.51497761 35.73478661 25.15495279 35.74105835 26.79492188 C35.74842119 30.22810703 35.73774392 33.66064072 35.71435547 37.09375 C35.68586713 41.48909357 35.70227439 45.88291065 35.73221779 50.27819824 C35.75030723 53.66352794 35.74452539 57.04849719 35.73157883 60.43383789 C35.72824932 62.05411969 35.73231592 63.67443448 35.74397659 65.29467773 C35.75671367 67.56191356 35.73727397 69.82669642 35.70947266 72.09375 C35.70350571 74.02637695 35.70350571 74.02637695 35.69741821 75.99804688 C34.90158199 80.23087805 33.37714981 81.71619542 30.0625 84.375 C27.1291279 85.14326412 25.16183663 84.7249251 22.0625 84.375 C21.0725 83.715 20.0825 83.055 19.0625 82.375 C19.0625 81.715 19.0625 81.055 19.0625 80.375 C18.53785156 80.66375 18.01320313 80.9525 17.47265625 81.25 C8.76429578 85.42305793 -1.38161433 85.99576062 -10.75 83.6796875 C-12.99280571 82.75297264 -14.90933364 81.70365592 -16.9375 80.375 C-17.63101562 79.95089844 -18.32453125 79.52679688 -19.0390625 79.08984375 C-27.07800315 73.6853874 -31.84849417 65.75248265 -33.9375 56.375 C-34.4044421 51.59754702 -34.44736644 46.86005705 -34.4375 42.0625 C-34.46585937 40.82048828 -34.49421875 39.57847656 -34.5234375 38.29882812 C-34.5437827 28.59925166 -32.5835599 19.9083887 -26.6875 12 C-19.16795259 4.8222502 -10.61260598 -0.21230297 0 0 Z " fill="#371B3C" transform="translate(331.9375,35.625)"/>
<path d="M0 0 C0.7528125 -0.01289062 1.505625 -0.02578125 2.28125 -0.0390625 C5.7398026 0.99606768 6.6275294 2.54369789 8.5 5.625 C9.09053859 9.14269007 9.05732886 12.62320381 9.0390625 16.18359375 C9.05085541 17.20550308 9.06264832 18.22741241 9.07479858 19.2802887 C9.11005248 22.54118089 9.11922607 25.80143286 9.125 29.0625 C9.14136715 32.31980375 9.16347275 35.57682238 9.19662476 38.83399963 C9.21617813 40.85845105 9.22559797 42.88303272 9.22354126 44.90757751 C9.26110026 49.89670107 9.56727285 53.9438198 11.5 58.625 C11.768125 59.5325 12.03625 60.44 12.3125 61.375 C13.34069873 63.85934642 13.34069873 63.85934642 16.0625 64.875 C17.2690625 65.24625 17.2690625 65.24625 18.5 65.625 C18.995 66.12 18.995 66.12 19.5 66.625 C24.99592975 67.1463868 29.91428291 67.33290941 35 65.0625 C39.62675855 60.55141041 41.69834171 56.73089469 41.98242188 50.31982422 C41.99657654 48.27315585 41.99098551 46.22628403 41.96875 44.1796875 C41.97579956 43.09164825 41.98284912 42.00360901 41.9901123 40.88259888 C42.01209331 37.42149112 42.00915013 33.96115696 42 30.5 C41.98796714 25.93447795 42.00161788 21.37010818 42.03125 16.8046875 C42.01993042 15.75876434 42.00861084 14.71284119 41.99694824 13.63522339 C42.0474396 6.38127378 42.0474396 6.38127378 44.390625 2.46557617 C46.80550191 0.35842837 47.83221657 -0.02971287 51 0.0625 C51.7528125 0.06121094 52.505625 0.05992188 53.28125 0.05859375 C56.53931962 0.89031927 57.5072145 1.87524902 59.5 4.625 C60.09739439 8.07172578 60.03307509 11.48988327 60.00390625 14.98046875 C60.01332748 15.99667801 60.02274872 17.01288727 60.03245544 18.05989075 C60.0611364 21.31096472 60.06418393 24.56130973 60.0625 27.8125 C60.06611794 31.04573173 60.0757996 34.27842935 60.10325623 37.5115509 C60.11992085 39.52164553 60.12301881 41.53191485 60.11024475 43.54203796 C60.1579128 49.96425252 60.46148132 57.22442521 64.95191956 62.24992371 C69.67943055 66.28616314 72.85504386 66.98558739 78.89453125 66.8984375 C83.12056037 66.4549262 85.12487186 65.25759995 88.5 62.625 C92.9587759 56.57911699 93.04874253 51.54234551 92.96875 44.1796875 C92.97579956 43.09164825 92.98284912 42.00360901 92.9901123 40.88259888 C93.01209331 37.42149112 93.00915013 33.96115696 93 30.5 C92.98796714 25.93447795 93.00161788 21.37010818 93.03125 16.8046875 C93.01427063 15.23580276 93.01427063 15.23580276 92.99694824 13.63522339 C93.04744948 6.37985403 93.04744948 6.37985403 95.39282227 2.46777344 C97.78033999 0.37983649 98.80008761 -0.05437456 101.9375 0 C102.67871094 -0.01289062 103.41992188 -0.02578125 104.18359375 -0.0390625 C107.87714686 1.01979758 109.18045416 2.54441231 111.5 5.625 C112.24537131 9.47095662 112.17672128 13.26466218 112.12890625 17.171875 C112.13131821 18.29764954 112.13373016 19.42342407 112.13621521 20.58331299 C112.13523659 22.96378095 112.12183957 25.34427161 112.09692383 27.72460938 C112.06275033 31.34845404 112.07623299 34.969841 112.09570312 38.59375 C112.0888005 40.91146863 112.07912437 43.22918099 112.06640625 45.546875 C112.07384605 47.15982452 112.07384605 47.15982452 112.08143616 48.80535889 C111.9116028 59.78982376 107.78452127 68.05329788 100.4375 76.1875 C94.05061318 82.27669294 87.16664441 84.91075641 78.375 85.0625 C69.11632842 84.6687288 63.00014232 83.54496264 55.54296875 77.8671875 C53.32886158 76.27864517 53.32886158 76.27864517 49.5 76.625 C47.25228855 77.85091476 47.25228855 77.85091476 45.0625 79.5 C37.57086505 84.89397716 29.97456245 86.13317787 20.8125 85.4140625 C10.79210431 83.75443446 2.77821882 78.56510027 -3.5 70.625 C-7.03461118 64.5058321 -8.59804593 58.51176789 -8.67700195 51.45507812 C-8.68983719 50.45053589 -8.70267242 49.44599365 -8.71589661 48.41101074 C-8.72328354 47.3369397 -8.73067047 46.26286865 -8.73828125 45.15625 C-8.746353 44.04318481 -8.75442474 42.93011963 -8.76274109 41.7833252 C-8.77654947 39.43320256 -8.78728608 37.08306015 -8.79516602 34.73291016 C-8.81243772 31.13796373 -8.85636078 27.54392333 -8.90039062 23.94921875 C-8.91051316 21.66406925 -8.91903063 19.37891195 -8.92578125 17.09375 C-8.94328934 16.01967896 -8.96079742 14.94560791 -8.97883606 13.83898926 C-8.95715337 6.39387841 -8.95715337 6.39387841 -6.61206055 2.44970703 C-4.20604381 0.37103762 -3.14746866 -0.05389501 0 0 Z " fill="#361A3B" transform="translate(177.5,35.375)"/>
<path d="M0 0 C8.80259151 5.19062426 14.62580355 11.86740589 17.328125 21.83984375 C17.8910487 25.78588316 17.98694966 29.68610449 18.03515625 33.66796875 C18.07866211 34.87163086 18.07866211 34.87163086 18.12304688 36.09960938 C18.18663952 41.99415883 18.18663952 41.99415883 15.828125 45.1015625 C12.7849078 47.27528907 11.14485164 47.72953217 7.45654297 47.71899414 C6.13539993 47.71888084 6.13539993 47.71888084 4.78756714 47.71876526 C3.83544342 47.71360397 2.8833197 47.70844269 1.90234375 47.703125 C0.92854767 47.70171005 -0.04524841 47.7002951 -1.04855347 47.69883728 C-4.16651448 47.69322848 -7.28440435 47.68067448 -10.40234375 47.66796875 C-12.5130198 47.66295488 -14.62369697 47.65839178 -16.734375 47.65429688 C-21.91538896 47.6432562 -27.09636127 47.62650948 -32.27734375 47.60546875 C-30.58314591 53.77400656 -29.13812165 58.26973825 -23.3984375 61.7421875 C-19.37892162 63.37812306 -15.52175142 63.32274993 -11.27734375 62.60546875 C-8.2952058 61.1981229 -5.58227313 59.61946263 -2.8203125 57.8203125 C0.25940485 56.34904968 1.53814918 56.49988407 4.72265625 57.60546875 C8.16904093 60.20940385 9.51842029 61.75710398 10.53515625 65.98046875 C9.33139231 71.35110786 6.1655214 73.59150399 1.72265625 76.60546875 C-7.09260939 81.62705458 -18.36032084 81.88003012 -28.0546875 79.41796875 C-36.15413342 76.45718711 -43.12700517 70.21121828 -47.33984375 62.71484375 C-50.67787797 55.3326527 -50.52561331 47.91824665 -50.57250977 39.96020508 C-50.58399068 38.60755927 -50.60438101 37.25495738 -50.6340332 35.90258789 C-50.90730488 23.40689675 -49.14738715 14.75754972 -40.42578125 5.58203125 C-29.14688933 -4.79454932 -13.83635151 -6.64815275 0 0 Z " fill="#361A3B" transform="translate(141.27734375,39.39453125)"/>
<path d="M0 0 C7.66851958 4.53289823 13.36991585 10.27242676 16.72265625 18.609375 C17.53720834 22.07263004 17.86461537 25.31770131 17.91552734 28.87109375 C17.93159027 29.89565674 17.9476532 30.92021973 17.96420288 31.97583008 C18.00886439 36.62678123 18.0496668 41.27759568 18.07275391 45.92871094 C18.08935612 48.38258317 18.11670144 50.83640621 18.15478516 53.29003906 C18.20946492 56.83423858 18.23140963 60.37731094 18.24609375 63.921875 C18.26876312 65.01781982 18.2914325 66.11376465 18.31478882 67.24291992 C18.29362474 74.851218 18.29362474 74.851218 15.32104492 78.79833984 C11.28210747 81.61341435 9.55983468 81.3771811 4.72265625 80.609375 C2.15979501 78.44799384 0.89603112 76.69648786 0.36227417 73.34967041 C0.21210502 70.51516533 0.19557519 67.70558123 0.21875 64.8671875 C0.20932877 63.8254538 0.19990753 62.78372009 0.19020081 61.7104187 C0.16155509 58.38487047 0.15847201 55.06003661 0.16015625 51.734375 C0.15654352 48.41595866 0.14694165 45.09806285 0.11940002 41.77975464 C0.10267347 39.71742288 0.09968705 37.65492015 0.1124115 35.59255981 C0.06246513 28.7404435 -0.71648249 23.76777055 -5.15234375 18.296875 C-9.29934317 15.00366958 -12.97257933 14.19326881 -18.29296875 14.36328125 C-23.02177724 14.94972797 -26.07906682 17.1535671 -29.08984375 20.671875 C-31.8284262 24.3494 -32.40093178 25.86782967 -32.40332031 30.34692383 C-32.40712708 31.33167191 -32.41093384 32.31641998 -32.41485596 33.33100891 C-32.41588318 34.39869003 -32.4169104 35.46637115 -32.41796875 36.56640625 C-32.436296 38.81576534 -32.45586623 41.06511458 -32.4765625 43.31445312 C-32.50554896 46.86971625 -32.52734409 50.4243473 -32.52783203 53.97973633 C-32.53116334 57.40503365 -32.56569765 60.82886332 -32.60546875 64.25390625 C-32.59839905 65.31551468 -32.59132935 66.37712311 -32.58404541 67.47090149 C-32.70602421 74.85858881 -32.70602421 74.85858881 -35.68823242 78.77758789 C-39.71327783 81.62529328 -41.43635067 81.3777866 -46.27734375 80.609375 C-48.97295698 78.4164701 -50.12269364 76.60105869 -50.66070557 73.15109253 C-50.84229156 70.00425866 -50.88404677 66.88258929 -50.87890625 63.73046875 C-50.8874765 62.56741714 -50.89604675 61.40436554 -50.90487671 60.20606995 C-50.91635637 57.74409585 -50.91736886 55.28205392 -50.90869141 52.82006836 C-50.90240607 49.08391733 -50.94916668 45.35098974 -51 41.61523438 C-51.00455012 39.21614979 -51.00595106 36.81705677 -51.00390625 34.41796875 C-51.02232574 33.31440536 -51.04074524 32.21084198 -51.0597229 31.07383728 C-50.9438214 21.17400328 -47.60736818 12.90888577 -40.83984375 5.609375 C-29.42483881 -4.72447309 -13.86743096 -6.64442183 0 0 Z " fill="#35193A" transform="translate(430.27734375,39.390625)"/>
<path d="M0 0 C1.33737094 0.31674575 2.67288808 0.64270064 4 1 C4.66 0.67 5.32 0.34 6 0 C10.15978614 -0.32679306 14.32898284 -0.32480176 18.5 -0.375 C19.64726563 -0.41238281 20.79453125 -0.44976562 21.9765625 -0.48828125 C30.53574293 -0.57601772 37.52765642 0.81477818 43.93945312 6.81494141 C49.15405524 12.4456022 50.54513376 17.86460284 50.37109375 25.4609375 C50 28 50 28 48 30.6875 C43.82563414 32.51378506 41.54930165 32.64990024 37 32 C33.08886393 28.6034871 32.37364537 24.85354698 31 20 C26.94644682 17.29763122 23.82094744 17.63252324 19.0625 17.625 C17.84530273 17.58826172 17.84530273 17.58826172 16.60351562 17.55078125 C15.42499023 17.54498047 15.42499023 17.54498047 14.22265625 17.5390625 C13.50859619 17.53084473 12.79453613 17.52262695 12.05883789 17.51416016 C9.06547088 18.22052804 7.93148684 19.6420663 6 22 C5.42064749 24.65956321 5.42064749 24.65956321 5.53344727 27.60717773 C5.5298671 28.73192001 5.52628693 29.85666229 5.52259827 31.01548767 C5.5370549 32.22596268 5.55151154 33.43643768 5.56640625 34.68359375 C5.55680101 37.24544331 5.54703029 39.80729226 5.53710938 42.36914062 C5.54094505 45.73506382 5.55510317 49.10092499 5.57373047 52.46679688 C5.59856654 57.03939324 5.58704132 61.61092425 5.56640625 66.18359375 C5.58288712 67.39204453 5.59936798 68.6004953 5.61634827 69.8455658 C5.56065311 79.1763992 5.56065311 79.1763992 2.59350586 82.25952148 C0.11035453 83.92594207 -1.05675056 84.68433971 -4 84.625 C-4.9590625 84.64433594 -4.9590625 84.64433594 -5.9375 84.6640625 C-9.25885634 83.59468641 -10.79808085 81.66032605 -13 79 C-13.63491821 75.62304688 -13.63491821 75.62304688 -13.64697266 71.71875 C-13.65573425 71.00428711 -13.66449585 70.28982422 -13.67352295 69.55371094 C-13.6954549 67.20184849 -13.68098866 64.85188013 -13.6640625 62.5 C-13.66743248 60.86002239 -13.67228661 59.22004721 -13.67855835 57.58007812 C-13.68592119 54.14689297 -13.67524392 50.71435928 -13.65185547 47.28125 C-13.62336713 42.88590643 -13.63977439 38.49208935 -13.66971779 34.09680176 C-13.68780723 30.71147206 -13.68202539 27.32650281 -13.66907883 23.94116211 C-13.66574932 22.32088031 -13.66981592 20.70056552 -13.68147659 19.08032227 C-13.69421367 16.81308644 -13.67477397 14.54830358 -13.64697266 12.28125 C-13.64299469 10.99283203 -13.63901672 9.70441406 -13.63491821 8.37695312 C-12.11222133 0.27815251 -7.04994377 -0.67142322 0 0 Z " fill="#391D3D" transform="translate(36,36)"/>
<path d="M0 0 C4.75605867 2.71647546 7.91224143 5.86658578 9.7734375 11.12890625 C10.36939265 15.45261047 10.37763807 19.70747008 10.3359375 24.06640625 C10.37170898 25.77860352 10.37170898 25.77860352 10.40820312 27.52539062 C10.39591539 34.61541139 9.62583957 39.75226687 4.7734375 45.12890625 C0.27765444 48.95817882 -4.00308337 49.77350928 -9.86328125 49.515625 C-14.60202169 48.74019475 -17.27927275 46.12882321 -20.4765625 42.75390625 C-24.38987568 36.88393648 -24.59135748 31.14866973 -24.6015625 24.31640625 C-24.63830078 23.03926758 -24.63830078 23.03926758 -24.67578125 21.73632812 C-24.70656345 15.00015599 -23.41126077 8.62499724 -18.7434082 3.50073242 C-13.35356268 -1.18090956 -6.73775119 -2.6359974 0 0 Z " fill="#FBFAFB" transform="translate(339.2265625,53.87109375)"/>
<path d="M0 0 C3.59922197 2.42556263 6.76919719 5.09179629 8.875 8.9375 C8.875 10.9175 8.875 12.8975 8.875 14.9375 C-1.685 14.9375 -12.245 14.9375 -23.125 14.9375 C-23.125 8.09692972 -22.35431274 7.22031975 -17.984375 2.640625 C-12.82695889 -2.0833948 -6.38923357 -2.17233941 0 0 Z " fill="#FAFAFA" transform="translate(132.125,54.0625)"/>
</svg>
