<svg width="12" height="12" viewBox="0 0 12 12" fill="none" xmlns="http://www.w3.org/2000/svg">
<g clip-path="url(#clip0_515_447)">
<path d="M9.99927 1.5V3.5M10.9993 2.5H8.99927M1.99927 8.5V9.5M2.49927 9H1.49927M4.96774 7.75C4.9231 7.57697 4.83291 7.41905 4.70655 7.29269C4.58019 7.16633 4.42227 7.07614 4.24924 7.0315L1.18174 6.2405C1.1294 6.22565 1.08334 6.19413 1.05054 6.15072C1.01775 6.10732 1 6.0544 1 6C1 5.9456 1.01775 5.89268 1.05054 5.84928C1.08334 5.80588 1.1294 5.77436 1.18174 5.7595L4.24924 4.968C4.42221 4.92341 4.58008 4.83329 4.70644 4.70702C4.83279 4.58075 4.92302 4.42295 4.96774 4.25L5.75874 1.1825C5.77344 1.12996 5.80493 1.08367 5.8484 1.0507C5.89187 1.01773 5.94493 0.999878 5.99949 0.999878C6.05405 0.999878 6.10711 1.01773 6.15058 1.0507C6.19405 1.08367 6.22553 1.12996 6.24024 1.1825L7.03074 4.25C7.07538 4.42304 7.16557 4.58095 7.29193 4.70731C7.41829 4.83367 7.5762 4.92386 7.74924 4.9685L10.8167 5.759C10.8695 5.77355 10.916 5.80501 10.9492 5.84854C10.9823 5.89207 11.0003 5.94528 11.0003 6C11.0003 6.05472 10.9823 6.10793 10.9492 6.15146C10.916 6.195 10.8695 6.22645 10.8167 6.241L7.74924 7.0315C7.5762 7.07614 7.41829 7.16633 7.29193 7.29269C7.16557 7.41905 7.07538 7.57697 7.03074 7.75L6.23974 10.8175C6.22503 10.87 6.19355 10.9163 6.15008 10.9493C6.10661 10.9823 6.05355 11.0001 5.99899 11.0001C5.94443 11.0001 5.89137 10.9823 5.8479 10.9493C5.80443 10.9163 5.77294 10.87 5.75824 10.8175L4.96774 7.75Z" stroke="#8B4097" stroke-width="1.25" stroke-linecap="round" stroke-linejoin="round"/>
</g>
<defs>
<clipPath id="clip0_515_447">
<rect width="12" height="12" fill="white"/>
</clipPath>
</defs>
</svg>
