<svg width="24" height="25" viewBox="0 0 24 25" fill="none" xmlns="http://www.w3.org/2000/svg">
<g clip-path="url(#clip0_271_662)">
<path fill-rule="evenodd" clip-rule="evenodd" d="M22.7462 5.3348C23.1185 5.70956 23.3859 6.17556 23.5216 6.68614C24.0234 8.57069 24.0234 12.5007 24.0234 12.5007C24.0234 12.5007 24.0234 16.4307 23.5216 18.3152C23.3859 18.8258 23.1185 19.2918 22.7462 19.6666C22.3738 20.0413 21.9095 20.3117 21.3998 20.4507C19.5234 20.9552 12.0234 20.9552 12.0234 20.9552C12.0234 20.9552 4.52344 20.9552 2.64707 20.4507C2.13737 20.3117 1.6731 20.0413 1.30073 19.6666C0.928354 19.2918 0.660943 18.8258 0.525256 18.3152C0.0234376 16.4307 0.0234375 12.5007 0.0234375 12.5007C0.0234375 12.5007 0.0234376 8.57069 0.525256 6.68614C0.660943 6.17556 0.928354 5.70956 1.30073 5.3348C1.6731 4.96003 2.13737 4.68964 2.64707 4.55069C4.52344 4.04614 12.0234 4.04614 12.0234 4.04614C12.0234 4.04614 19.5234 4.04614 21.3998 4.55069C21.9095 4.68964 22.3738 4.96003 22.7462 5.3348ZM15.8416 12.5007L9.56891 8.93208V16.0694L15.8416 12.5007Z" fill="#FAFAFA"/>
</g>
<defs>
<clipPath id="clip0_271_662">
<rect width="24" height="24" fill="white" transform="translate(0 0.500732)"/>
</clipPath>
</defs>
</svg>
