<svg width="32" height="32" viewBox="0 0 32 32" fill="none" xmlns="http://www.w3.org/2000/svg">
<circle cx="16" cy="16" r="16" fill="#7FB519"/>
<circle cx="16.0016" cy="16" r="10.4" fill="white"/>
<path d="M15.9987 5.33322C10.1214 5.33322 5.33203 10.1226 5.33203 15.9999C5.33203 21.8772 10.1214 26.6666 15.9987 26.6666C21.876 26.6666 26.6654 21.8772 26.6654 15.9999C26.6654 10.1226 21.876 5.33322 15.9987 5.33322ZM21.0974 13.5466L15.0494 19.5946C14.9 19.7439 14.6974 19.8292 14.484 19.8292C14.2707 19.8292 14.068 19.7439 13.9187 19.5946L10.9 16.5759C10.5907 16.2666 10.5907 15.7546 10.9 15.4452C11.2094 15.1359 11.7214 15.1359 12.0307 15.4452L14.484 17.8986L19.9667 12.4159C20.276 12.1066 20.788 12.1066 21.0974 12.4159C21.4067 12.7252 21.4067 13.2266 21.0974 13.5466Z" fill="#659711"/>
</svg>
