<?xml version="1.0" encoding="UTF-8"?>
<svg version="1.1" xmlns="http://www.w3.org/2000/svg" width="850" height="818">
<path d="M0 0 C280.5 0 561 0 850 0 C850 269.94 850 539.88 850 818 C569.5 818 289 818 0 818 C0 548.06 0 278.12 0 0 Z " fill="#331738" transform="translate(0,0)"/>
<path d="M0 0 C280.5 0 561 0 850 0 C850 269.94 850 539.88 850 818 C569.5 818 289 818 0 818 C0 548.06 0 278.12 0 0 Z M66 64 C50.71772112 83.18135345 43.8208335 104.89823591 43.86857224 129.28512573 C43.8665196 130.2755933 43.86446697 131.26606086 43.86235213 132.28654259 C43.85671078 135.59582624 43.85813583 138.90506789 43.85955811 142.21435547 C43.85697283 144.61491665 43.85395922 147.0154774 43.8505547 149.41603756 C43.84334434 155.31547915 43.84078301 161.21491234 43.84022565 167.1143573 C43.83930936 174.18420635 43.83263401 181.25404711 43.82587883 188.32389257 C43.80984402 205.4081075 43.80391849 222.4923215 43.79913008 239.5765426 C43.79679169 247.66318122 43.79318878 255.74981914 43.7894347 263.83645722 C43.77660167 291.53429644 43.76588208 319.23213528 43.7624321 346.92997742 C43.76221047 348.66759159 43.76198868 350.40520577 43.76176675 352.14281994 C43.76154611 353.88455268 43.76132563 355.62628541 43.7611053 357.36801815 C43.76066275 360.86204465 43.76021564 364.35607115 43.75976562 367.85009766 C43.75965623 368.71640842 43.75954684 369.58271918 43.75943414 370.47528179 C43.7558043 398.55920207 43.73988574 426.64309652 43.71657526 454.72700691 C43.69195756 484.44030522 43.67825837 514.15358878 43.67706418 543.86689758 C43.67689273 547.13109335 43.67667731 550.3952891 43.67642975 553.65948486 C43.67637398 554.46318298 43.67631821 555.26688109 43.67626075 556.09493369 C43.67511204 569.00622325 43.66410541 581.91748622 43.64954269 594.82876682 C43.63514852 607.81555242 43.63195718 620.80230407 43.63998267 633.78909546 C43.64442508 641.49499712 43.6406342 649.20078889 43.62474416 656.90667602 C43.6137867 662.67453941 43.61867858 668.44230564 43.62951604 674.21016526 C43.63146817 676.53318754 43.62841715 678.85622096 43.61967167 681.17922759 C43.50947859 712.44492239 49.35248295 739.55125233 71 763 C71.59425781 763.67546875 72.18851563 764.3509375 72.80078125 765.046875 C86.04055092 779.37079455 108.79259041 790.28681875 128.24382619 791.09299801 C130.87456152 791.13171363 133.50360512 791.13839919 136.13462543 791.13422108 C137.65059033 791.13774942 137.65059033 791.13774942 139.19718078 791.14134905 C142.59316001 791.14802077 145.98910083 791.14758137 149.38508606 791.14717102 C151.84080539 791.15047078 154.29652417 791.15419659 156.75224227 791.1583125 C162.79976011 791.16727734 168.84726561 791.17155812 174.89478837 791.17383147 C182.13945005 791.17679733 189.38410206 791.18549704 196.62875866 791.19424575 C214.13962114 791.21507633 231.65048529 791.22555809 249.16135726 791.23437535 C257.44859913 791.23858418 265.73584028 791.24380588 274.02308153 791.24905988 C302.40195377 791.26694962 330.78082622 791.28194443 359.15970325 791.28938007 C360.94090523 791.28985483 362.7221072 791.29033072 364.50330917 791.29080774 C365.38660843 791.29104411 366.2699077 791.29128049 367.1799736 791.29152403 C371.65505728 791.2927252 376.13014094 791.29394066 380.60522461 791.29516602 C381.49331183 791.29540617 382.38139905 791.29564632 383.29639801 791.29589374 C412.07940061 791.30378371 440.86236196 791.32720953 469.64534656 791.35972196 C500.08970759 791.39404811 530.5340445 791.41373382 560.9784252 791.41702431 C564.32299055 791.41744184 567.66755587 791.4179214 571.0121212 791.41844749 C572.24737378 791.41863228 572.24737378 791.41863228 573.50758096 791.4188208 C586.73983769 791.42114942 599.97204638 791.43679055 613.20428601 791.45728934 C626.51518328 791.47758218 639.82602308 791.48300832 653.13693295 791.47351871 C661.03614627 791.46831709 668.93516773 791.47411756 676.8343533 791.49605338 C682.74623109 791.51122388 688.65796939 791.50527175 694.56985422 791.49138286 C696.95151399 791.48900941 699.33319245 791.49331652 701.7148237 791.50521151 C731.528968 791.64482057 756.2996614 784.94737104 778.25 763.77734375 C797.4765232 744.35964773 806.17847979 718.86431156 806.13422108 691.84630203 C806.13657331 690.8578871 806.13892554 689.86947217 806.14134905 688.85110527 C806.14800007 685.54275448 806.14758201 682.23444332 806.14717102 678.92608643 C806.15047207 676.52852626 806.15419815 674.13096665 806.1583125 671.73340774 C806.16726507 665.83741027 806.17155575 659.94141987 806.17383147 654.04541705 C806.17680097 646.98034921 806.18550277 639.91529125 806.19424575 632.8502286 C806.21506134 615.77493199 806.22555567 598.69963367 806.23437535 581.62432733 C806.23858627 573.54092046 806.24380768 565.45751433 806.24905988 557.37410809 C806.2669482 529.6852706 806.2819424 501.99643289 806.28938007 474.30759048 C806.28985482 472.57019809 806.29033071 470.8328057 806.29080774 469.09541331 C806.29104411 468.23385306 806.29128049 467.37229282 806.29152403 466.48462468 C806.29272518 462.11979536 806.29394064 457.75496604 806.29516602 453.39013672 C806.29552624 452.09083466 806.29552624 452.09083466 806.29589374 450.76528407 C806.30378259 422.69564173 806.32720683 394.6260417 806.35972196 366.55641783 C806.39406279 336.85628977 806.41373516 307.15618646 806.41702431 277.45603824 C806.41744183 274.19205394 806.41792139 270.92806967 806.41844749 267.66408539 C806.41857069 266.86044304 806.41869388 266.0568007 806.4188208 265.22880556 C806.42114756 252.32641157 806.43677813 239.42406693 806.45728934 226.52169049 C806.47760127 213.53808562 806.48299935 200.55453968 806.47351871 187.57092187 C806.46832452 179.87006599 806.47408197 172.16940711 806.49605338 164.46857981 C806.51126167 158.69910148 806.50524641 152.92979328 806.49138286 147.1603187 C806.48901554 144.84057601 806.49328429 142.52081398 806.50521151 140.20110074 C806.65223637 109.69397191 800.71332937 83.4377853 780 60 C779.45988281 59.37609375 778.91976562 58.7521875 778.36328125 58.109375 C765.22133802 43.94123469 747.51025052 36.14808024 729 32 C727.96982996 31.73417444 727.96982996 31.73417444 726.9188484 31.46297866 C722.63097594 30.78284966 718.39118244 30.85897451 714.05623817 30.86577892 C713.04193869 30.86342669 712.0276392 30.86107446 710.98260337 30.85865095 C707.56217292 30.8519603 704.14178045 30.8524192 700.72134399 30.85282898 C698.2528383 30.84953039 695.78433315 30.84580484 693.31582868 30.8416875 C687.2290197 30.83271144 681.14222301 30.82843974 675.05540914 30.82616853 C667.7654762 30.82320597 660.47555291 30.81450819 653.18562503 30.80575425 C635.56389766 30.78490994 617.94216862 30.77443967 600.32043181 30.76562465 C591.9828294 30.76141771 583.64522771 30.75619575 575.30762591 30.75094012 C546.76364184 30.73304903 518.21965756 30.71805371 489.67566872 30.71061993 C487.88363062 30.71014517 486.09159253 30.70966928 484.29955443 30.70919226 C482.96652582 30.7088377 482.96652582 30.7088377 481.60656734 30.70847597 C477.10408526 30.70727478 472.60160317 30.70605933 468.09912109 30.70483398 C467.2055913 30.70459383 466.3120615 30.70435368 465.39145504 30.70410626 C436.4286117 30.69621536 407.46580934 30.67278832 378.50298388 30.64027804 C347.87790406 30.60596473 317.25284821 30.58626735 286.62774885 30.58297569 C283.26438927 30.58255815 279.9010297 30.58207859 276.53767014 30.58155251 C275.70952369 30.58142931 274.88137725 30.58130612 274.02813546 30.5811792 C260.71149152 30.57884893 247.39489523 30.56319855 234.07826827 30.54271066 C220.68652395 30.52243448 207.29483676 30.51698382 193.90307994 30.52648129 C185.95214556 30.53168944 178.00140162 30.52585139 170.05049473 30.50394662 C164.10536143 30.48880905 158.16036729 30.49470597 152.21522705 30.50861714 C149.81606438 30.51099598 147.41688329 30.50665547 145.01774879 30.49478849 C114.04042763 30.35109637 86.99372584 40.16029373 66 64 Z " fill="#331838" transform="translate(0,0)"/>
<path d="M0 0 C1.01370029 -0.00235223 2.02740058 -0.00470446 3.07181907 -0.00712797 C6.4902309 -0.01381862 9.90860472 -0.01335972 13.32702255 -0.01294994 C15.79410286 -0.01624854 18.26118263 -0.0199741 20.72826171 -0.02409142 C26.81161075 -0.03306752 32.89494749 -0.0373392 38.97830143 -0.03961039 C46.2641894 -0.04257297 53.55006772 -0.05127082 60.83595063 -0.06002467 C78.44875742 -0.08086974 96.06156589 -0.09133968 113.67438213 -0.10015428 C122.00865844 -0.10436143 130.34293403 -0.10958338 138.67720973 -0.11483881 C167.21231541 -0.13273067 195.74742129 -0.14772545 224.28253174 -0.155159 C226.07406163 -0.15563375 227.86559152 -0.15610964 229.65712141 -0.15658666 C230.5455527 -0.15682303 231.43398399 -0.15705941 232.34933745 -0.15730295 C236.85050511 -0.15850414 241.35167277 -0.15971959 245.85284042 -0.16094494 C246.7461087 -0.16118509 247.63937698 -0.16142524 248.559714 -0.16167267 C277.5085778 -0.16956207 306.45740058 -0.19298565 335.40624647 -0.22550088 C366.01946545 -0.25982266 396.63266043 -0.2795124 427.24589896 -0.28280324 C430.60873271 -0.28322077 433.97156644 -0.28370033 437.33440018 -0.28422642 C438.16241177 -0.28434961 438.99042337 -0.2844728 439.84352622 -0.28459973 C453.15233654 -0.28692903 466.46109914 -0.30257415 479.76989247 -0.32306826 C493.15719055 -0.34335558 506.54443149 -0.34878988 519.9317421 -0.33929763 C527.87781247 -0.33409367 535.82369218 -0.33990762 543.76973499 -0.3618323 C549.71480061 -0.37699116 555.65972736 -0.37105852 561.60479996 -0.35716178 C564.00130644 -0.35478642 566.39783145 -0.35910544 568.79430965 -0.37099043 C598.14122639 -0.50745663 622.73429285 6.54640381 644.3118248 27.35687733 C667.86949756 51.14878832 672.54741516 80.15865478 672.4360466 112.33752918 C672.43879186 114.74784687 672.44284792 117.15816336 672.44809026 119.56847692 C672.45642772 124.77947197 672.45558471 129.99037926 672.44635773 135.20136929 C672.43267468 142.95046604 672.43635053 150.69948938 672.44331633 158.44859164 C672.45520512 172.29251306 672.4501861 186.13638875 672.43803806 199.98030763 C672.4274819 212.09320279 672.42296512 224.2060824 672.42433357 236.31898212 C672.42445962 237.52643879 672.42445962 237.52643879 672.42458821 238.75828853 C672.42494048 242.02627777 672.4253245 245.29426701 672.42575379 248.56225624 C672.42971404 279.18400666 672.41702283 309.8057296 672.39622722 340.42747216 C672.37785235 367.61244357 672.37204719 394.79738866 672.37749863 421.98236561 C672.37784506 423.72860172 672.37819116 425.47483784 672.37853692 427.22107396 C672.37879341 428.51605647 672.37879341 428.51605647 672.37905508 429.83720026 C672.37990867 434.18337287 672.38073246 438.52954549 672.38152409 442.87571812 C672.38168117 443.73321993 672.38183825 444.59072175 672.38200009 445.47420846 C672.38599249 468.21708543 672.38051155 490.95995988 672.37201279 513.70283532 C672.37110579 516.15067107 672.37020014 518.59850682 672.36929756 521.04634257 C672.36869645 522.67004093 672.36808784 524.29373929 672.36747165 525.91743764 C672.36325558 537.22206225 672.3626698 548.52668188 672.36457715 559.83130701 C672.36702287 574.39869186 672.36292573 588.96605005 672.34736715 603.53342763 C672.3393343 611.23129664 672.3367025 618.92912128 672.3420095 626.62699292 C672.34534843 632.38144278 672.33818293 638.13584199 672.32698443 643.89028016 C672.32406304 646.21298888 672.32447986 648.53570478 672.3286275 650.85841164 C672.37273805 678.03383025 668.78420833 704.98191117 650.0618248 726.13422108 C649.37346542 726.95277576 648.68510605 727.77133045 647.9758873 728.61468983 C632.98378215 746.00027141 611.95344026 757.46875706 589.0618248 760.13422108 C580.95152085 760.67207834 572.81128265 760.54006463 564.6877861 760.515172 C562.22231005 760.51863257 559.75683555 760.52339981 557.29136425 760.52935374 C551.95054685 760.53923801 546.60984949 760.53989398 541.26903725 760.53221226 C533.32686198 760.52082026 525.38476298 760.52668902 517.44258815 760.53583718 C503.25455495 760.55160238 489.06656238 760.55027807 474.87852536 760.54160044 C462.46272836 760.5340443 450.04694622 760.53208809 437.63114738 760.53566837 C436.3942681 760.53601211 436.3942681 760.53601211 435.13240136 760.53636278 C431.7848809 760.53729685 428.43736045 760.53825205 425.08984001 760.53924207 C393.7090359 760.54841222 362.32825762 760.54010941 330.9474575 760.52395138 C303.08493133 760.509714 275.22244631 760.51099036 247.3599205 760.52533436 C216.0338349 760.54140766 184.70777209 760.54776312 153.38168293 760.53849757 C150.04068411 760.53753546 146.69968528 760.53659693 143.35868645 760.53566837 C142.53608704 760.53543114 141.71348763 760.53519391 140.86596096 760.53494949 C128.45914524 760.53154109 116.05234604 760.53552037 103.64553261 760.54310703 C89.53526443 760.55169248 75.42504312 760.54952389 61.31478076 760.5332648 C53.42361099 760.52447116 45.53254277 760.52385885 37.64137568 760.53520332 C31.74290962 760.54274595 25.84453267 760.53453541 19.94607676 760.5202796 C17.56473216 760.51693556 15.18337392 760.51861734 12.80203813 760.52590697 C-16.97473169 760.61004791 -41.08104346 753.2316431 -63.1256752 732.25922108 C-73.60538377 721.39532768 -81.48662666 708.0199813 -85.8131752 693.57172108 C-86.09970963 692.61918446 -86.09970963 692.61918446 -86.39203262 691.64740467 C-90.40624339 677.07245165 -90.22345602 662.39245104 -90.19214249 647.41193104 C-90.19444927 645.00506639 -90.19762725 642.59820245 -90.20159698 640.19133997 C-90.20818889 634.97551237 -90.20862195 629.75972245 -90.20350266 624.54389477 C-90.19591068 616.78753166 -90.19981914 609.03120328 -90.20591927 601.27484037 C-90.21643162 587.41876886 -90.2155456 573.56271584 -90.20976144 559.70664258 C-90.20472457 547.58074941 -90.20341961 535.454863 -90.20580673 523.328969 C-90.2059595 522.52372293 -90.20611227 521.71847686 -90.20626967 520.88882939 C-90.20689238 517.61983488 -90.20752918 514.35084037 -90.2081892 511.08184587 C-90.21430321 480.43432568 -90.2087666 449.78681725 -90.19799541 419.13929888 C-90.18850464 391.92812733 -90.18935392 364.7169745 -90.19891739 337.50580311 C-90.20963338 306.91329521 -90.21386956 276.32079769 -90.20769286 245.72828817 C-90.20705145 242.46534984 -90.20642577 239.20241149 -90.20580673 235.93947315 C-90.20564858 235.13609135 -90.20549042 234.33270955 -90.20532748 233.50498284 C-90.20305531 221.38856945 -90.2057079 209.27216358 -90.21076584 197.15575123 C-90.21649003 183.3748486 -90.21504258 169.5939673 -90.20420435 155.81306732 C-90.19834272 148.10632975 -90.1979326 140.3996384 -90.2054967 132.69290206 C-90.2105263 126.93168677 -90.20504973 121.170519 -90.19554755 115.40931112 C-90.19331873 113.08379002 -90.19443814 110.75826272 -90.19929913 108.43274564 C-90.25599301 79.04967752 -85.60726444 52.42089121 -64.9381752 30.13422108 C-64.20727676 29.33500233 -63.47637833 28.53578358 -62.72333145 27.71234608 C-46.59905908 10.82295006 -23.38774368 -0.03673316 0 0 Z M-34.7897377 58.95453358 C-38.65101427 63.21183851 -41.33649253 68.03454599 -43.9381752 73.13422108 C-44.26753578 73.73913915 -44.59689637 74.34405722 -44.93623757 74.96730614 C-50.0614298 86.05168434 -48.21698314 100.68906377 -48.19214249 112.59149647 C-48.19444845 114.99393559 -48.19762588 117.39637401 -48.20159698 119.79881096 C-48.20819634 125.01111235 -48.20861638 130.22337605 -48.20350266 135.43567753 C-48.19591896 143.1867223 -48.19981488 150.93773226 -48.20591927 158.68877682 C-48.216438 172.53436143 -48.21554305 186.37992755 -48.20976144 200.22551391 C-48.20472676 212.34214915 -48.2034186 224.45877763 -48.20580673 236.5754137 C-48.2059595 237.37970116 -48.20611227 238.18398861 -48.20626967 239.01264841 C-48.20689237 242.27766108 -48.20752917 245.54267376 -48.2081892 248.80768642 C-48.21430473 279.42474836 -48.2087642 310.04179855 -48.19799541 340.65885867 C-48.18850447 367.84954567 -48.18935374 395.04021393 -48.19891739 422.23090076 C-48.20963083 452.79261118 -48.21387098 483.35431122 -48.20769286 513.91602325 C-48.20705144 517.17502498 -48.20642576 520.43402672 -48.20580673 523.69302845 C-48.20564858 524.49545495 -48.20549042 525.29788145 -48.20532748 526.1246239 C-48.20305426 538.23249093 -48.20570987 550.34035045 -48.21076584 562.44821644 C-48.21648713 576.21787943 -48.21504875 589.98752107 -48.20420435 603.75718141 C-48.19833784 611.45988571 -48.19793967 619.16254376 -48.2054967 626.86524685 C-48.21051911 632.61999029 -48.2050598 638.37468606 -48.19554755 644.12942207 C-48.19331539 646.45496736 -48.19444567 648.78051885 -48.19929913 651.10606015 C-48.24127973 672.8942601 -46.75877682 689.25456045 -30.7116127 705.53265858 C-14.99878336 720.27173512 3.3553641 719.43027717 23.56379318 719.38818836 C25.9710698 719.39049431 28.37834571 719.39367174 30.78562015 719.39764285 C36.00846425 719.40424229 41.23127073 719.4046622 46.45411491 719.39954853 C54.22078303 719.39196496 61.98741639 719.39586067 69.75408429 719.40196515 C83.62727762 719.4124838 97.50045251 719.41158899 111.37364759 719.40580732 C123.51381302 719.40077283 135.65397169 719.39946439 147.79413795 719.40185261 C149.00286634 719.40208176 149.00286634 719.40208176 150.23601348 719.40231555 C153.50722434 719.40293824 156.7784352 719.40357504 160.04964605 719.40423508 C190.72429062 719.41035052 221.39892344 719.40481009 252.07356619 719.39404128 C279.3179497 719.38454945 306.5623145 719.38540038 333.80669785 719.39496326 C364.42736232 719.40567535 395.04801643 719.40991769 425.66868252 719.40373874 C428.93356414 719.40309732 432.19844578 719.40247163 435.46332741 719.40185261 C436.26720448 719.40169445 437.07108155 719.4015363 437.89931854 719.40137335 C450.03166664 719.39909966 462.16400723 719.4017566 474.29635429 719.40681171 C488.09239628 719.41253143 501.88841696 719.41109795 515.6844563 719.40025023 C523.40292333 719.39438124 531.12134421 719.39398914 538.83981004 719.40154258 C544.60451067 719.40656128 550.36916367 719.40111088 556.13385689 719.39159343 C558.46476793 719.38935956 560.79568516 719.39049539 563.12659223 719.395345 C566.29677955 719.40143479 569.46671701 719.39517973 572.63689137 719.38590336 C573.53989744 719.39058569 574.44290351 719.39526802 575.3732734 719.40009224 C591.0475953 719.30854976 603.40689105 714.44120329 614.8430748 703.52484608 C618.40739694 699.68441447 621.3311534 695.59795859 624.0618248 691.13422108 C624.47303574 690.47808826 624.88424667 689.82195545 625.30791855 689.14593983 C632.19825011 676.95535322 630.34394742 661.16761639 630.31579208 647.67694569 C630.31809805 645.27450656 630.32127548 642.87206814 630.32524657 640.4696312 C630.33184594 635.2573298 630.33226598 630.04506611 630.32715225 624.83276463 C630.31956856 617.08171985 630.32346447 609.33070989 630.32956887 601.57966533 C630.3400876 587.73408073 630.33919265 573.8885146 630.33341104 560.04292825 C630.32837636 547.926293 630.32706819 535.80966453 630.32945633 523.69302845 C630.3296091 522.888741 630.32976187 522.08445354 630.32991927 521.25579374 C630.33054196 517.99078107 630.33117877 514.7257684 630.3318388 511.46075573 C630.33795432 480.84369379 630.33241379 450.22664361 630.321645 419.60958348 C630.31215407 392.41889649 630.31300334 365.22822822 630.32256699 338.03754139 C630.33328042 307.47583097 630.33752058 276.91413094 630.33134246 246.3524189 C630.33070104 243.09341717 630.33007536 239.83441544 630.32945633 236.5754137 C630.32929817 235.7729872 630.32914002 234.97056071 630.32897707 234.14381825 C630.32670385 222.03595122 630.32935946 209.92809171 630.33441544 197.82022572 C630.34013673 184.05056273 630.33869834 170.28092108 630.32785395 156.51126075 C630.32198744 148.80855645 630.32158926 141.10589839 630.3291463 133.4031953 C630.3341687 127.64845187 630.3287094 121.8937561 630.31919715 116.13902009 C630.31696499 113.81347479 630.31809527 111.4879233 630.32294872 109.16238201 C630.36370287 88.01072253 629.28409699 72.03056989 614.0696373 56.04047108 C597.73459658 40.48328944 579.77263151 40.83607552 558.60454941 40.88025379 C556.20211028 40.87794783 553.79967187 40.87477039 551.39723492 40.8707993 C546.18493352 40.86419994 540.97266983 40.8637799 535.76036835 40.86889362 C528.00932357 40.87647731 520.25831362 40.8725814 512.50726905 40.86647701 C498.66168445 40.85595828 484.81611833 40.85685323 470.97053197 40.86263483 C458.85389673 40.86766952 446.73726825 40.86897768 434.62063217 40.86658955 C433.41420099 40.86636039 433.41420099 40.86636039 432.18339746 40.86612661 C428.91838479 40.86550391 425.65337212 40.86486711 422.38835945 40.86420708 C391.77129751 40.85809155 361.15424733 40.86363208 330.5371872 40.87440087 C303.34650021 40.8838918 276.15583194 40.88304254 248.96514511 40.87347889 C218.40343469 40.86276545 187.84173466 40.85852529 157.28002262 40.86470342 C154.02102089 40.86534483 150.76201916 40.86597052 147.50301743 40.86658955 C146.70059093 40.8667477 145.89816443 40.86690586 145.07142197 40.8670688 C132.96355494 40.86934202 120.85569543 40.86668641 108.74782944 40.86163044 C94.97816645 40.85590914 81.2085248 40.85734753 67.43886447 40.86819193 C59.73616017 40.87405843 52.03350211 40.87445661 44.33079902 40.86689958 C38.57605559 40.86187717 32.82135982 40.86733648 27.06662381 40.87684873 C24.74107852 40.87908088 22.41552703 40.87795061 20.08998573 40.87309715 C-2.48766855 40.82959546 -17.99698133 42.44519926 -34.7897377 58.95453358 Z " fill="#FDFDFD" transform="translate(133.93817520141602,30.865778923034668)"/>
<path d="M0 0 C1.29128224 0.44642599 2.5829573 0.89171723 3.875 1.3359375 C25.49473946 9.04488171 39.17476763 25.86488599 48.93359375 45.91845703 C54.96811774 58.98514808 58.3358757 73.23860608 60.75 87.375 C60.86561279 88.05087158 60.98122559 88.72674316 61.1003418 89.4230957 C63.18322346 102.62416875 63.13990953 115.87981979 63.11352539 129.20239258 C63.11324282 131.21413675 63.11340261 133.22588101 63.1139679 135.23762512 C63.11425316 140.66231129 63.1084004 146.08697505 63.10139394 151.51165605 C63.09511513 157.19443029 63.09455303 162.87720512 63.09336853 168.5599823 C63.09026851 179.30475876 63.08207314 190.04952496 63.07201904 200.79429692 C63.05871914 215.32528134 63.05334725 229.8562686 63.04751682 244.38725758 C63.03813229 267.25817939 63.0182045 290.12907957 63 313 C30.66 313 -1.68 313 -35 313 C-35.04898438 300.06167969 -35.09796875 287.12335938 -35.1484375 273.79296875 C-35.18382451 265.59439437 -35.21970475 257.39582706 -35.2578125 249.19726562 C-35.31820165 236.18531913 -35.37658202 223.17338592 -35.421875 210.16137695 C-35.45487303 200.68419018 -35.49474721 191.20706121 -35.54279006 181.72993833 C-35.56797749 176.71445913 -35.58978149 171.69901789 -35.60334396 166.68349266 C-35.61623493 161.95654268 -35.63836433 157.22972339 -35.66738319 152.50284576 C-35.67640423 150.77398154 -35.68213631 149.0450963 -35.68421364 147.31620979 C-35.69692335 138.33996182 -36.04656324 129.80373728 -38 121 C-38.23356936 119.06302582 -38.46375741 117.12563386 -38.6875 115.1875 C-40.40668111 104.72232613 -45.97048695 94.20783277 -54.03515625 87.2421875 C-68.66247166 77.37790929 -85.81112857 77.02119923 -102.86328125 79.859375 C-114.43512338 82.18515448 -124.11969979 88.46640969 -131.15625 97.88671875 C-142.55304406 115.85367953 -143.1306903 137.39339871 -143.20532227 158.0378418 C-143.21491931 159.73402637 -143.2249304 161.43020865 -143.23532104 163.12638855 C-143.26217857 167.69995663 -143.28329087 172.27353483 -143.30332303 176.84713721 C-143.32530181 181.63841036 -143.35263191 186.42965302 -143.37937927 191.22090149 C-143.4291463 200.27992285 -143.47414395 209.33896127 -143.51740164 218.3980158 C-143.57618069 230.64933727 -143.64238092 242.90061854 -143.70815182 255.15190411 C-143.81147614 274.43457558 -143.90493153 293.71728196 -144 313 C-176.01 313 -208.02 313 -241 313 C-241 209.38 -241 105.76 -241 -1 C-210.31 -1 -179.62 -1 -148 -1 C-148 12.86 -148 26.72 -148 41 C-144.61306162 37.61306162 -141.73495197 34.52450747 -138.8125 30.8125 C-123.76187421 12.34015039 -104.41217603 -0.84433996 -81 -6 C-79.99163086 -6.22212158 -79.99163086 -6.22212158 -78.96289062 -6.44873047 C-52.8941549 -11.98803868 -24.91738311 -9.34401867 0 0 Z " fill="#FEFEFE" transform="translate(640,402)"/>
<path d="M0 0 C32.01 0 64.02 0 97 0 C97 103.62 97 207.24 97 314 C64.99 314 32.98 314 0 314 C0 210.38 0 106.76 0 0 Z " fill="#FEFEFE" transform="translate(240,401)"/>
<path d="M0 0 C0.75539063 0.55171875 1.51078125 1.1034375 2.2890625 1.671875 C3.3409375 2.414375 4.3928125 3.156875 5.4765625 3.921875 C11.71290633 10.01963341 17.07672629 17.52464548 20.2890625 25.671875 C20.73572266 26.79529297 20.73572266 26.79529297 21.19140625 27.94140625 C23.23281442 34.06563076 23.5694122 39.96084727 23.6015625 46.359375 C23.60704102 47.15512939 23.61251953 47.95088379 23.61816406 48.77075195 C23.45551546 62.26918371 18.24081838 74.65673559 9.2890625 84.671875 C8.74378906 85.29835938 8.19851563 85.92484375 7.63671875 86.5703125 C-1.93527644 96.88554497 -16.142498 102.79741783 -30.015625 103.9453125 C-47.20729242 104.43435337 -61.36000471 98.79065437 -73.9609375 86.984375 C-85.97471833 74.36037038 -90.40043991 59.94546555 -90.24755859 42.83862305 C-89.70569932 27.27818632 -82.68945287 14.18928109 -71.6484375 3.359375 C-50.72803028 -13.98835704 -22.36718778 -15.43929776 0 0 Z " fill="#FEFDFE" transform="translate(321.7109375,255.328125)"/>
</svg>
